<?xml version="1.0" encoding="utf-8"?>
<!-- Generator: Adobe Illustrator 27.6.1, SVG Export Plug-In . SVG Version: 6.00 Build 0)  -->
<svg version="1.1" id="Layer_1" xmlns="http://www.w3.org/2000/svg" xmlns:xlink="http://www.w3.org/1999/xlink" x="0px" y="0px"
	 viewBox="0 0 299.2 133.2" style="enable-background:new 0 0 299.2 133.2;" xml:space="preserve">
<style type="text/css">
	.st0{fill:#F9FBFB;}
	.st1{fill:#FAFCFB;}
	.st2{fill:#F8FAF9;}
	.st3{fill:#E0EBEB;}
	.st4{fill:#F9FCFB;}
	.st5{fill:#FDFFFF;stroke:#FDFFFF;stroke-width:0.2771;stroke-miterlimit:10;}
</style>
<path class="st0" d="M-21.8,143.1c-0.9,0.3-1.6,0.6-2-0.3c-0.1-0.2,0.3-0.9,0.6-1C-22.1,141.4-22,142.2-21.8,143.1L-21.8,143.1z"/>
<path class="st0" d="M-32.5,136.2l-0.2,1.6C-33.2,137.2-33.3,136.6-32.5,136.2z"/>
<path class="st0" d="M-23,140.5c-0.1,0-0.3,0-0.3,0c-0.1-0.1,0-0.2,0-0.3c0.1,0,0.3,0,0.3,0C-22.9,140.2-23,140.4-23,140.5z"/>
<path class="st1" d="M284.3,140.2c1.5,0.5,3.1,1,4.6,1.4c0.6,0.2,1.2,0.2,1.8,0.2c1.3-0.1,2.6-0.3,3.9-0.4c-1.9,2.2-4.3,2.3-6.8,1.7
	c-0.6-0.1-1.1-0.4-1.7-0.6C284.8,142.2,284.2,141.5,284.3,140.2L284.3,140.2z"/>
<path class="st2" d="M355.2,137.8c-0.4-0.9-0.4-1.5,0.8-1.6C356,136.8,356,137.5,355.2,137.8z"/>
<path class="st2" d="M353.6,142.5c0.5-0.1,1.1-0.3,1.6-0.4c-0.2,0.4-0.4,0.7-0.6,1.1C354.2,143,353.9,142.8,353.6,142.5L353.6,142.5
	z"/>
<path class="st3" d="M223.1,144.1c0.1,0.1,0.2,0.2,0.3,0.3c-0.1,0.1-0.2,0.1-0.3,0.1C223,144.4,223,144.3,223.1,144.1z"/>
<path class="st2" d="M36.2-14.3c-0.3-0.1-0.6-0.1-0.8-0.2c0-0.2,0-0.4,0-0.6C35.6-14.9,35.9-14.6,36.2-14.3z"/>
<path class="st2" d="M366.6,142.7c0.1,0.1,0.1,0.2,0.2,0.2c-0.1,0.1-0.3,0.1-0.4,0.2c0-0.1-0.1-0.2-0.1-0.3
	C366.3,142.8,366.5,142.7,366.6,142.7L366.6,142.7z"/>
<path class="st1" d="M52.9-16.7c-0.4,0.8-0.7,1.6-1.1,2.3c-0.2,0-0.4,0-0.6-0.1c-0.2-0.8-0.5-1.5-0.7-2.3h2.4V-16.7z"/>
<path class="st1" d="M130.2-16.7c0,1.1-0.8,1.2-1.6,1.2s-1.6-0.1-1.6-1.2H130.2L130.2-16.7z"/>
<path class="st1" d="M40.1-16.7c0,1.1-0.8,1.2-1.6,1.2c-0.1-0.4-0.3-0.8-0.4-1.2H40.1L40.1-16.7z"/>
<path class="st4" d="M48.1-16.7c0,0.8-0.1,1.6-1.2,1.6c-0.1-0.5-0.3-1.1-0.4-1.6C47.1-16.7,47.6-16.7,48.1-16.7z"/>
<path class="st1" d="M56.1-16.7c-0.5,1.1-1.1,1.1-1.6,0H56.1z"/>
<path class="st1" d="M107.5-16.7c-0.5,1.1-1.1,1.1-1.6,0H107.5z"/>
<path class="st1" d="M49.7-16.7c-0.2,0.2-0.3,0.3-0.5,0.5c-0.1-0.2-0.2-0.3-0.3-0.5C49.2-16.7,49.4-16.7,49.7-16.7z"/>
<path class="st0" d="M326.8,142.8c-1.1,0.9-2.2,0.6-3.2,0.4c-0.2,0-0.4-0.4-0.4-0.7c0-0.1,0.4-0.5,0.5-0.5
	C324.7,142.2,325.8,141.8,326.8,142.8z"/>
<path class="st5" d="M115.4,82.6c0.1,0,0.1,0,0.2,0c0.1,0.8,0.1,1.6,0.2,2.4c0.1,1,0.3,2,0.5,3c0.2,1.2,0.4,2.4,0.5,3.6
	c0.1,0.8,0.2,1.6,0.4,2.4c0.1,0.6,0.1,1.2,0.2,1.7c0,0.3,0.1,0.5,0.1,0.8c0,0.6,0.1,1.2,0.3,1.8c0.4,1.1,0.1,1.4-1.1,1.4
	c-0.1,0-0.2,0-0.3,0c-0.5,0.1-0.8-0.2-0.9-0.7s-0.2-1.1-0.2-1.7c-0.1-0.5-0.1-1.1-0.2-1.6c0-0.1-0.3-0.2-0.5-0.3c-0.5,0-1.1,0-1.6,0
	c-0.2,0.1-0.4,0.2-0.5,0.3c-0.1,0.4-0.1,0.8-0.2,1.2c-0.1,0.6-0.2,1.2-0.2,1.8c-0.3,0.3-0.5,0.7-0.8,0.8c-0.4,0.1-0.9,0.1-1.3,0.1
	c-0.3,0-0.5-0.2-0.5-0.6c0.2-0.9,0.3-1.9,0.4-2.8c0.1-1,0.3-1.9,0.4-2.9c0.1-1.3,0.1-2.7,0.4-4c0.3-1.5,0.4-3,0.7-4.5
	c0.1-0.7,0.2-1.4,0.4-2.1c0-0.2,0.3-0.5,0.4-0.5C113.3,82.5,114.3,82.6,115.4,82.6L115.4,82.6z M113.7,86.7h-0.2
	c0,0.5,0,1.1-0.1,1.6c-0.2,1.5-0.4,2.9-0.6,4.4c0,0.1,0.1,0.4,0.1,0.4c0.5,0,1,0,1.6,0c0.1,0,0.1-0.3,0.2-0.5v-0.1
	c-0.2-1.2-0.4-2.5-0.6-3.7C114,88.1,113.9,87.4,113.7,86.7L113.7,86.7z M69.5,82.6c0,0,0.1,0,0.2,0c0.1,1.2,0.1,2.4,0.4,3.6
	c0.2,0.8,0.3,1.5,0.3,2.3c0,0.1,0.1,0.3,0.1,0.4c0.1,0.7,0.3,1.3,0.4,2c0.2,1.2,0.2,2.4,0.4,3.5c0.2,1.2,0.5,2.5,0.7,3.7
	c0.3,1.6,0.3,1.7-1.4,1.7c-0.7,0-0.9-0.2-1-0.8c-0.1-1-0.1-2.1-0.2-3.1c0.1-0.2,0.2-0.4,0.4-0.7c0.3,0.7-0.1,1.6,0.7,2
	c0.4-0.5,0.4-0.7,0.2-2.3c0-0.3-0.4-0.6-0.6-0.9c0.6-0.7,0.4-1.6,0.3-2.4c-0.1-0.5-0.2-1-0.3-1.5c0-0.3,0-0.5-0.1-0.8
	c-0.3-1.1-0.7-2.3-0.7-3.5c0-0.4-0.1-0.8-0.2-1.1c0-0.1-0.2-0.3-0.3-0.3c-0.1,0-0.3,0.1-0.3,0.3c0,0.2,0,0.4,0,0.6
	c0.1,0.8,0.2,1.7,0.3,2.5c0.1,1.1,0.2,2.3,0.3,3.5c0,0.2,0.1,0.3,0.2,0.5c0.4,1,0.1,1.8-0.8,2.4c0.2,0.2,0.3,0.4,0.6,0.8
	c-1.1,0-2,0.2-2.9-0.3c0.3-0.2,0.6-0.2,0.9-0.2c0.1,0,0.2-0.2,0.3-0.3c0-0.1-0.1-0.2-0.1-0.3c-0.5-0.3-1.1-0.6-1.7-0.9
	c-0.2,0.4-0.3,0.7-0.5,1.1c-0.2,0.7-0.1,1,0.6,1.2c0.2,0.1,0.5,0.1,0.7,0.2c0,0.2-0.1,0.4-0.1,0.5c-0.4,0.2-0.3,0.5-0.1,0.7
	c-0.1,1-0.1,2.1-0.5,3.1c-0.1,0-0.2,0-0.2,0c-0.4,0-0.7,0-1.1,0c-0.6,0-0.9-0.3-0.9-0.9c0.1-0.5,0.2-1,0.2-1.5
	c0.2-1.6,0.5-3.2,0.7-4.8c0.1-0.8,0.2-1.6,0.3-2.4c0.2-1.4,0.4-2.7,0.6-4.1c0.2-1.1,0.4-2.3,0.5-3.4c0.3-0.1,0.6-0.1,0.9-0.2
	C67.8,82.6,68.6,82.6,69.5,82.6L69.5,82.6z M68,86.3c0-0.2,0.2-0.4,0.1-0.5c-0.3-0.5,0.1-0.8,0.2-1.2c0.1-0.4,0.8-0.7,0.5-1.2
	c-1.8-0.4-2.7,0.2-2.1,2.2c0.4,0.1,0.7,0.3,0.9,0.7c0,0.4,0,0.7,0,1.1c-0.1,0.6-0.3,1.2-0.4,1.9c-0.1,1-0.2,2-0.4,3
	c-0.2,1.1,0,1.3,1.2,1.2c0.5,0,0.8-0.3,0.7-0.8c-0.2-1.2-0.3-2.5-0.5-3.7c-0.1-0.5-0.2-1.1-0.3-1.6C68,86.9,68,86.6,68,86.3L68,86.3
	z M70.8,98L70.8,98L70.8,98L70.8,98C70.7,98,70.8,98,70.8,98L70.8,98z M168.1,82.6h0.2c0.2,0,0.5,0,0.7,0c1.1,0.1,2.1,0.5,2.6,1.6
	c0.5,0.9,0.3,1.9,0.4,2.9c0.1,1.3-0.2,2.3-1.1,3.2c-0.3,0.3-0.2,0.5,0.1,0.6c1,0.6,1.2,1.6,1.2,2.7c0,0.9,0,1.8,0,2.7
	c0,0.5-0.1,1-0.3,1.5c-0.7,1.4-1.5,2-3,2c-0.8,0-1.6,0-2.3,0.1c-1.1,0.2-1.4,0-1.4-1.1c0-1.6-0.1-3.2-0.1-4.8c0-3.5,0-7,0-10.5
	c0-0.7,0.2-0.9,1-0.9C166.8,82.6,167.5,82.6,168.1,82.6L168.1,82.6z M167.6,89.6c0.5,0.5,0.7,0.5,1.3,0l0.5-0.4h0.1
	c0.6-0.6,0.7-2.7,0.1-3.4c0-0.1,0-0.2,0-0.4c-0.1-0.1-0.1-0.2-0.2-0.4c-0.1-0.1-0.2-0.2-0.3-0.2c-0.7-0.3-1.4-0.2-1.7,0.4
	c-0.1,0.1-0.1,0.2-0.2,0.3c0,1.2,0,2.4,0,3.5C167.3,89.3,167.5,89.5,167.6,89.6L167.6,89.6L167.6,89.6z M168,92.2
	c-0.1,0-0.1,0.1-0.2,0.1c0,0.2-0.1,0.4-0.1,0.6c0,0.6,0,1.2,0,1.8c-0.4,0.2-0.3,0.4,0.1,0.5c0,0.7,0.1,1.5,0.1,2.2
	c0.4,0.5,0.8,0.4,1.3,0.1c0.5-0.1,0.8-0.4,0.9-1c0-0.6,0-1.3,0-1.9c0-0.2,0-0.4,0-0.5s0-0.3,0-0.4c0-1.3-0.3-1.5-1.6-1.5
	C168.2,92.2,168.1,92.2,168,92.2L168,92.2z M169.8,90.1c-0.7,0.1-1.3,0.2-1.9,0.4c-0.7,0.2-0.9,0.1-1-0.7c0-0.6,0-1.3,0-1.9
	c0-1,0-1.9,0-2.9s0.9-1.5,1.8-1.1c0.8,0.4,1.5,0.7,1.9,1.5c0,0.1,0.2,0.1,0.3,0.2c0.4-0.9,0.3-1.7-0.4-1.9c-0.7-0.3-1.4-0.4-2.2-0.5
	c-0.5-0.1-1,0.1-1.4,0.1c-1,0-1,0-1,1c0,3.2,0,6.5,0,9.7c0,0.4,0.1,0.8,0.1,1.2c0.1,0.7,0.2,1.5,0.2,2.2c0,0.6-0.2,1.2-0.3,2
	c0.4,0,0.7-0.1,1-0.1s0.7-0.1,0.9,0c1,0.4,1.9,0,2.7-0.4c0.7-0.3,1-0.9,1.1-1.6c0.1-0.6,0.1-1.1,0.2-1.7c0.2-1.1-0.3-2.2-0.5-3.3
	c-0.1-0.3-0.2-0.6-0.5-0.4c-0.3,0.1-0.4,0.4-0.3,0.8c0.1,0.5,0.2,0.9,0.2,1.4c0.1,0.9,0.1,1.7,0.1,2.6c0,0.2,0,0.4-0.1,0.5
	c-0.5,0.8-1.1,1.5-2.2,1.4c-0.5,0-1,0-1.5-0.1c-0.4,0-0.4-0.3-0.3-0.6c0.1-0.3,0.2-0.5,0.2-0.8c0-1.4,0.1-2.9,0-4.3s1.2-1.9,2.3-1.6
	c0.2,0.1,0.4,0.1,0.7,0.2v-1.3H169.8z M171.6,86.5c-0.1,0-0.2,0-0.2,0c-0.3,0.2-0.6,0.5-0.8,0.7c-0.1,0.1-0.1,0.4-0.1,0.5
	c0.3,0.5,0.2,1,0,1.4c-0.1,0.1,0.1,0.4,0.1,0.5c0.2-0.1,0.5-0.2,0.5-0.4c0.2-0.5,0.4-1.1,0.5-1.6C171.6,87.3,171.6,86.8,171.6,86.5
	L171.6,86.5z M49.9,82.5c0.1,0.1,0.2,0.2,0.3,0.3c0.1,0.4,0.2,0.8,0.2,1.2c0,1.2,0,2.3,0,3.5c0,0.6,0,1.2,0,2c0.3-0.8,0.5-1.4,0.7-2
	l0,0c0-0.1,0.1-0.1,0.1-0.2c0.4-1.2,0.8-2.4,1.3-3.6c0.1-0.3,0.2-0.7,0.3-1h0.1c0.7,0,1.4-0.1,2-0.1c0.5,0,0.6,0.4,0.4,0.8
	c-0.4,1.2-0.8,2.4-1.3,3.6c-0.5,1.3-1,2.5-1.5,3.8c-0.1,0.2-0.1,0.5,0,0.7c0.4,1,0.7,2.1,1.1,3.1c0.5,1.3,1,2.6,1.5,3.9
	c0.2,0.5,0.2,0.9,0.4,1.5c-0.7,0-1.3,0-1.9,0c-0.4,0-0.7-0.3-0.8-0.7c-0.2-0.5-0.3-0.9-0.5-1.4c-0.5-1.2-0.9-2.3-1.4-3.5
	c-0.1-0.4-0.2-0.7-0.3-1.1c0-0.2-0.1-0.4-0.1-0.6v-0.1c0-0.1-0.1-0.3-0.1-0.4c-0.1,0-0.1,0-0.2,0c0,0.4,0,0.8,0.1,1.2
	c0,1.9,0,3.8,0,5.8c-0.1,0.2-0.2,0.3-0.4,0.5c-0.6,0.5-1.8,0.4-2.1-0.3c-0.1-0.2-0.1-0.5-0.1-0.8c0-2.7,0-5.4,0-8c0-0.1,0-0.1,0-0.2
	c0-2.5,0-5,0-7.5l0.3-0.2C48.7,82.6,49.3,82.5,49.9,82.5L49.9,82.5z M82.2,100L82,99.8c-0.1-0.8-0.1-1.5-0.2-2.3
	c-0.1-0.7-0.1-1.4-0.2-2c0-0.7,0-1.4,0-2c0-2.4,0-4.7,0-7.1c0-0.2,0-0.5,0-0.7c0-0.4-0.3-0.6-0.7-0.7c-0.2,0-0.4,0-0.5,0
	c-1.3,0-1.7-0.6-1.3-1.8c0.1-0.2,0.5-0.5,0.7-0.5c0.7-0.1,1.4-0.1,2.1-0.2c0.3,0,0.7,0,1,0c1,0,2,0,2.9,0c0.2,0,0.7,0.2,0.7,0.4
	c0.1,0.7,0.3,1.4-0.3,1.9c-0.5,0-1.1,0.2-1.6,0.1C84.2,84.8,84,85,84,85.3c0,0.5,0,1.1,0,1.6c0,2.9,0,5.8,0,8.7c0,1.4,0,2.8,0,4.2
	l0,0c-0.3,0-0.6,0.1-0.9,0.1C83,100,82.6,100,82.2,100L82.2,100z M83.4,98.7 M102,82.4c0.2,0.1,0.5,0.1,0.7,0.2
	c-0.1,0.6-0.2,1.2-0.3,1.8c-0.3,1.3-0.6,2.6-1,3.8c-0.4,1.7-0.8,3.4-1.3,5c-0.4,1.1-0.2,2.2-0.3,3.3c-0.5,0-0.5-0.4-0.5-0.8
	c-0.2-1.9,0.7-3.6,1.1-5.4c0.2-0.8,0.1-1.7,0.7-2.4c0.1-0.1,0-0.2,0-0.4c0-0.4,0.1-0.7,0.1-1.1c0.2-1.1,0.4-2.2,0.7-3.3
	c-1-0.2-1.1-0.1-1.2,0.7c0,0.4-0.1,0.8-0.2,1.1c-0.2,0.7-0.4,1.3-0.5,2c-0.2,1-0.3,1.9-0.4,2.9c0,0.2-0.1,0.3-0.2,0.5
	c-0.4,0.5-0.7,0.5-1.1-0.1c-0.2-0.3-0.3-0.6-0.4-0.9c-0.3-1.4-0.6-2.8-0.9-4.2c-0.1-0.5-0.3-1.1-0.4-1.6c-0.1-0.4-0.3-0.5-0.7-0.4
	c-0.4,0.1-0.3,0.4-0.2,0.6c0.1,0.3,0.2,0.6,0.2,1c0.3,1.5,0.6,3.1,0.9,4.6c0.5,2.1,1,4.2,1.4,6.3c0,0.1,0,0.2,0,0.3
	c-0.1,0.9-0.2,1.7-0.2,2.6c0,0.6,0.3,0.7,0.9,0.7c0.5-0.1,0.7-0.3,0.6-0.9c0-0.3-0.1-0.5-0.2-0.8c0-0.4,0.2-0.4,0.5-0.3l0.2,2
	c0,0.1,0,0.2,0,0.4c-0.1,0.1-0.1,0.1-0.2,0.2c-0.6,0-1.2,0-1.8,0c-0.2-0.1-0.4-0.2-0.6-0.2c-0.1,0-0.2,0.1-0.3,0.2l0,0
	c0.1-0.1,0.2-0.1,0.2-0.2c0-0.2,0.1-0.4,0.1-0.5c0-0.8,0-1.6,0-2.4c0.2-1.6-0.2-3.2-0.6-4.7c-0.3-1-0.5-1.9-0.8-2.9
	c-0.4-1.6-0.8-3.2-1.1-4.8c-0.1-0.5-0.5-1.1-0.1-1.7c0.1,0,0.1,0,0.1,0c0.6,0,1.2-0.1,1.8-0.1c0.1,0.1,0.2,0.2,0.3,0.2l0,0
	c0.1,0.1,0.1,0.3,0.2,0.5c0.2,1.1,0.3,2.2,0.6,3.2c0.3,1,0.1,2.2,1,3.1c0.3-1.7,0.6-3.3,1-4.8c0.2-0.7,0.5-1.4,0.7-2.1
	c0.1,0,0.1,0,0.1,0c0.3,0,0.6,0,0.9,0C101.7,82.4,101.8,82.4,102,82.4L102,82.4z M214.3,99.1c-1.6,1.5-3.4,1.4-5.3,0
	c-0.8-1.2-1.1-2.6-1.1-4.1c0-1.8,0-3.7,0-5.5c0-1.3-0.1-2.6,0-3.9c0.1-1.1,0.5-2.1,1.5-2.6c1.1-0.6,2.2-0.6,3.3-0.2
	c0.6,0.2,1.2,0.5,1.5,1c0.5,0.7,0.9,1.6,0.9,2.4c0.1,2.3-0.1,4.6-0.1,7c0,0.2,0,0.5,0,0.7C215.3,95.7,215.4,97.5,214.3,99.1
	L214.3,99.1L214.3,99.1z M211.4,83.2c-0.8-0.1-1.5,0.1-2,0.6c-0.3,0.3-0.3,0.8-0.5,1.2c-0.1,0.1-0.2,0.3-0.2,0.4
	c0,0.3,0.1,0.6,0.1,0.8c0.4,1.2-0.1,2.4-0.2,3.6c0.1,0.4,0.1,0.8,0.2,1.3c0.1,0.3,0.1,0.6,0.2,0.9v0.7c-0.1,0.2-0.1,0.4-0.2,0.5v0.9
	c0,0.4,0,0.7,0,1.1c0.1,0.4,0.1,0.8,0.2,1.3c0.1,0.5,0.1,1,0.2,1.4c-0.1,0.6,0.3,0.9,0.8,1.1c0.3,0.1,0.5,0.2,0.8,0.2
	c1.2,0.3,2.2,0.2,3.1-0.8v-0.7c0.6-0.5,0.4-1.2,0.4-1.7c0.1-0.7,0.3-1.5-0.3-2.2v-0.9c0.5-0.5,0.3-1.1,0.2-1.6c0-0.3,0-0.6,0-0.9
	c0.1-0.3,0.2-0.6,0.2-0.9c0-1-0.1-2.1-0.2-3.1c-0.1-0.7-0.3-1.4-0.4-2.2c0-0.2-0.2-0.4-0.3-0.4c-0.5-0.2-1-0.4-1.6-0.6L211.4,83.2
	L211.4,83.2z M241.7,99.7c-0.1,0.1-0.1,0.1-0.2,0.2c-0.7,0-1.3,0-2,0c-0.1-0.1-0.1-0.1-0.2-0.2c0.1-1.4,0.1-2.9,0.5-4.2
	c0.4-1.2,0.3-2.5,0.6-3.7c0.2-1.1,0.3-2.2,0.4-3.3c0.2-1.6,0.5-3.2,0.7-4.8c0.1-0.7,0.4-1.1,1.1-1.1c0.6,0,1.2,0,1.8,0
	c0.7,0,0.8,0.2,0.9,0.8c0.1,0.3,0.2,0.6,0.3,1c0.2,1.6,0.4,3.2,0.6,4.8c0.1,1.1,0.3,2.2,0.4,3.3c-0.5-0.1-0.7-0.5-0.7-1
	c0-0.3,0.1-0.5,0.1-0.8c0.1-0.4-0.2-0.5-0.5-0.5c-0.1,0.1-0.3,0.2-0.4,0.3c0.1,0.1,0.2,0.2,0.2,0.3c-0.2,0.7-0.5,1.5-0.7,2.2
	c-0.1,0.2-0.2,0.5-0.5,0.3c0.1-0.3,0.2-0.6,0.2-0.9c-0.2-1.6-0.4-3.2-0.6-4.8c0-0.1-0.2-0.2-0.3-0.4c-0.1,0-0.1,0-0.2,0
	c-0.1,0.4-0.1,0.8-0.2,1.2c-0.1,0.8-0.3,1.7-0.4,2.5c-0.1-0.3-0.3-0.6-0.3-0.9c0.1-1.3,0.2-2.6,0.4-3.9c0-0.2,0.3-0.5,0.6-0.5
	c0.4-0.1,0.4,0.3,0.5,0.6c-0.1,0.1-0.1,0.1-0.2,0.2c0.1,0,0.3,0.1,0.4,0.1c0.1,0.2,0.2,0.5,0.3,0.7c0.2,0.7,0.2,0.7,1.1,0.7
	c0.1-0.5,0-0.9-0.3-1.3c-0.6-0.5-0.6-0.5,0.1-1c0.1,0,0.1-0.1,0.2-0.2c-0.6-0.5-0.7-1.2-0.6-1.9c-0.2-0.1-0.4-0.2-0.5-0.4
	c-0.5,0-0.9,0-1.3,0c-0.2,0-0.5,0.1-0.5,0.2c-0.2,0.6-0.5,1.3-0.6,2s0,1.4-0.1,2.1c-0.1,1-0.5,1.9,0.2,2.8c-0.8,0.6-0.9,1-0.6,1.9
	c0,0.1,0,0.3,0,0.4c-0.1,0.4-0.2,0.7-0.4,1.1c-0.2,0.3-0.2,0.6,0.1,0.9s0.3,0.6-0.1,0.9c-0.2,0.1-0.3,0.3-0.4,0.6
	c-0.1,0.6-0.2,1.3-0.3,1.9c0,0.4-0.2,0.8,0.3,1.1c0.1,0.1,0.3,0.2,0.4,0.3c0.1-0.2,0.2-0.3,0.3-0.5c0.1-0.7,0.3-1.3,0-2
	c0.4-0.1,0.4-0.4,0.4-0.7c0.2-0.2,0.5-0.4,0.7-0.5c0.1,0,0.1,0,0.2,0c-0.1,0.3-0.3,0.5-0.4,0.8C241.9,97.5,241.8,98.6,241.7,99.7
	L241.7,99.7z M155.6,99.8c-0.1,0-0.3,0.1-0.4,0.1c-0.5,0-1.1,0-1.6,0.1l-0.1-0.1c-0.1-0.4-0.3-0.9-0.3-1.3c0-4.8,0-9.6,0-14.4
	c0-1.6-0.4-1.6,1.7-1.6c0.4,0,0.8,0.1,0.9,0.5c0,0.3,0,0.6,0,0.9c0,1.6,0,3.2,0,4.8c0,1.4,0,2.7,0,4.1c0,1.6,0,3.2-0.1,4.8
	C155.8,98.5,155.7,99.2,155.6,99.8L155.6,99.8z M155.3,83.4c-1.2-0.3-1.3-0.2-1.2,0.7c0.3,1.8,0.3,3.6,0.2,5.4c-0.1,1.1,0,2.1,0,3.2
	c0,0.8,0,1.6,0,2.4s-0.1,1.6-0.1,2.4c0,0.4,0,0.9,0,1.3c0,0.1,0.1,0.4,0.3,0.4s0.4,0,0.6-0.1c0.1,0,0.1-0.4,0-0.5
	c-0.4-0.4-0.3-0.9-0.2-1.3s0.3-0.7,0.3-1.1c0-0.7-0.1-1.5-0.1-2.2c0-1.2,0-2.4,0-3.7c0-1.1,0-2.2-0.1-3.3
	C154.8,85.9,154.2,84.6,155.3,83.4L155.3,83.4z M245.7,100c-0.1-0.1-0.1-0.2-0.2-0.3c-0.1-0.7-0.2-1.5-0.3-2.2
	c-0.1-0.6-0.2-1.2-0.3-1.8c0,0,0-0.1,0-0.2c0.1-0.1,0.1-0.1,0.2-0.2c0.3,0.5,0.7,1,1,1.6c0.2-0.4,0.4-0.8,0.7-1.2
	c0.2-0.3,0.2-0.5,0-0.9c-0.4-0.8-0.5-1.6,0-2.3c0.1,0.4,0.2,0.9,0.3,1.3c0.2,0.9,0.3,1.8,0.5,2.7c0.1,0.7,0.2,1.4,0.2,2.1
	c0,0.3,0,0.6,0,0.9c-0.1,0.1-0.3,0.1-0.4,0.2C246.8,99.9,246.2,100,245.7,100L245.7,100z M246.3,99c0,0-0.1,0-0.1,0.1v0.1
	C246.3,99.2,246.3,99.1,246.3,99C246.4,99.1,246.4,99.1,246.3,99L246.3,99z M190.2,66.1c0,0.1,0,0.2,0,0.4c-0.1,0.1-0.2,0.2-0.3,0.3
	c-0.4,0-0.8,0.1-1.2,0.1C189.2,66.7,189.7,66.4,190.2,66.1z M96.9,69.9c0-0.4,0-0.8,0-1.3c0-0.1,0.1-0.3,0.1-0.4
	c0.1,0.3,0.2,0.6,0.3,0.9c0,0.3,0,0.6,0,0.9C97.2,70,97.1,70,96.9,69.9C96.9,70,96.9,70,96.9,69.9L96.9,69.9z M97,26.5
	c0-0.1,0.1-0.1,0.1-0.2c3.8,0,7.5,0,11.3,0c10.3,0,20.6,0,30.9,0c0.4,0,0.8,0,1.2-0.1c0.1,0.1,0.3,0.2,0.4,0.3c0,0.1,0,0.2,0,0.3
	c0,13.6,0,27.1,0,40.7c0,0.8,0,1.6-0.1,2.4c-0.3,0.1-0.6,0.2-0.9,0.2c-13.9,0-27.9,0-41.8,0c-0.3,0-0.6,0-0.9-0.1c0-0.3,0-0.6,0-0.9
	c0.5,0.1,1,0.2,1.5,0.2c1.6,0,3.2,0,4.8,0h0.7c11.5,0,23,0,34.5,0c0.3,0,0.5,0,0.8,0c0.4,0,0.6-0.2,0.6-0.5c0-13.4,0-26.8,0-40.2
	c0-0.3,0-0.5,0-0.8c0-0.2-0.2-0.4-0.3-0.6h-10.9c-0.6,0-1.2,0.1-1.8,0.1c-2.3,0-4.7,0-7-0.1c-0.5,0-1,0.1-1.5,0.1
	c-0.6,0-1.2-0.1-1.9-0.1c-3.4,0-6.8,0-10.2,0h-3.2c-0.1,0-0.2,0-0.4,0c-0.2,0-0.5,0-0.7,0h-3.8c-0.4,0.1-0.9,0.1-1.3,0.2
	C97.1,27.1,97,26.8,97,26.5L97,26.5z M190.2,66.1c-0.5,0.3-1,0.6-1.6,0.8c-0.4,0-0.7,0.1-1.1,0.1c-12.6,0-25.1,0-37.7,0
	c-0.4,0-0.9-0.1-1.3-0.1c-0.1,0-0.1-0.1-0.2-0.1c-0.1,0-0.1,0-0.2,0c-0.1-0.1-0.1-0.2-0.2-0.3c-0.1-0.4-0.2-0.8-0.7-0.9
	c-0.1-0.1-0.1-0.2-0.2-0.4c0.1-0.1,0.1-0.2,0.2-0.4c0.7-0.1,0.5-0.6,0.5-1c0-4.9,0-9.7,0-14.6h0.6c0.4,0.5,1.1,0.2,1.5,0.5
	c-0.4,0.1-0.8,0.1-1.2,0.2c-0.4,0.1-0.4,0.3,0,0.5c0,0.1,0,0.1,0.1,0.2c0,0.2,0,0.4,0,0.5c0,4.5,0,9.1,0,13.6c0,0.3,0.2,0.5,0.3,0.8
	c0.2,0.1,0.4,0.3,0.7,0.3c3.4,0,6.8,0,10.2,0c0.3,0,0.7,0,0.8-0.4c0.1,0,0.3,0,0.4,0c0.1,0,0.2,0,0.3,0c0.4,0,0.7,0.1,1.1,0.1
	c4,0,7.9,0,11.9,0c4.4,0,8.9,0,13.3,0c0.4,0,0.8,0.2,1.1-0.3c0.1-0.4,0.2-0.7,0.2-1.1c0-8.7,0-17.4,0-26.1c0-0.3-0.1-0.6-0.1-0.9
	c-0.4-0.1-0.7-0.2-1.1-0.2c-8.1,0-16.2,0-24.3,0c-1,0-2,0-3,0.1c-0.6,0.1-0.3,0.6-0.3,0.9c0,4.1,0,8.2,0,12.3
	c-0.6-0.1-1.3-0.1-1.9-0.2c-0.3,0-0.5-0.2-0.7-0.3c0.1,0,0.2,0,0.4,0c0.6,0.2,1.1,0.4,1.6-0.2v-0.1c0.1,0,0.1-0.1,0.2-0.1
	c0-0.1,0-0.2,0-0.4c0-2.6,0-5.1,0-7.7c0-0.2,0-0.4,0-0.5c-0.1,0-0.1-0.1-0.2-0.1v-0.1c0-0.2,0-0.4,0-0.5c0.1-0.3,0.3-0.6,0.3-0.9
	c0.1-0.4,0-0.8,0-1.2c0-1-0.1-1.1-1.1-1.1c-2.6,0-5.1,0-7.7,0l-0.4-0.5c-0.1,0.2-0.2,0.3-0.4,0.5c-0.4,0-0.8,0-1.1,0
	c-0.5,0-0.9,0.1-1.2,0.5c0-0.4,0-0.7,0.1-1.2c-0.2,0-0.4,0-0.6,0.1v-1.1c0.2-0.2,0.5-0.4,0.7-0.5c0.1,0.2,0.1,0.4,0.2,0.6
	c0.1,0.1,0.2,0.2,0.3,0.3c0.3,0,0.6,0,0.9,0c12.7,0,25.5,0,38.2,0c0.4,0,0.7,0,1.1,0c0.1-0.1,0.3-0.1,0.3-0.2c0-1.2,0-2.5,0-3.7
	c0-0.1-0.2-0.3-0.3-0.4c-0.3-0.5-0.9-0.4-1.4-0.4c-10.5,0-21.1,0-31.6,0c-2.4,0-4.7,0-7.1,0c-0.3-0.2-0.4,0-0.5,0.2
	c-0.1,0.4-0.2,0.8-0.2,1.2c-0.2,0.1-0.5,0.1-0.7,0.2c-0.1,0-0.3,0-0.4,0v-1.6c0-0.1,0-0.2,0.1-0.3l0,0c0.2-0.1,0.3-0.3,0.5-0.4
	c0.2-0.2,0.5-0.5,0.7-0.7c0.5-0.1,0.9-0.2,1.4-0.2c10.3,0,20.6,0,30.9,0c2.5,0,5.1,0,7.6,0c0.1,0.4,0.4,0.2,0.6,0.1
	c0.2,0.1,0.5,0.1,0.7,0.2c0.3,0.4,0.6,0.9,0.9,1.3c0,2.2,0,4.4,0,6.5c0,9,0,18.1,0,27.1c-0.4,0.1-0.4,0.3-0.1,0.6c0,0.1,0,0.1,0,0.2
	C190.1,65.4,190.3,65.8,190.2,66.1L190.2,66.1L190.2,66.1z M147.9,29.5c0.2,0,0.5-0.1,0.7-0.1c-0.2,0.2-0.5,0.5-0.7,0.7
	c-0.1-0.1-0.1-0.1-0.2-0.2C147.8,29.8,147.8,29.6,147.9,29.5z M147.4,65.6c0.5,0.1,0.6,0.5,0.7,0.9C147.6,66.4,147.4,66,147.4,65.6z
	 M147.7,29.9c0.1,0.1,0.1,0.1,0.2,0.2c-0.2,0.1-0.3,0.3-0.5,0.4C147.5,30.3,147.6,30.1,147.7,29.9z M69,91.4
	c-0.1-1.1-0.2-2.3-0.3-3.5c-0.1-0.9-0.2-1.7-0.3-2.5c0-0.2-0.1-0.4,0-0.6c0-0.1,0.2-0.2,0.3-0.3c0.1,0,0.3,0.1,0.3,0.3
	c0.1,0.4,0.2,0.8,0.2,1.1c0,1.2,0.4,2.3,0.7,3.5c0.1,0.3,0,0.5,0.1,0.8c0.1,0.5,0.2,1,0.3,1.5c0.1,0.8,0.3,1.6-0.3,2.4
	c0.2,0.3,0.6,0.6,0.6,0.9c0.2,1.6,0.2,1.7-0.2,2.3c-0.8-0.4-0.4-1.3-0.7-2c-0.4,0.2-0.5,0.4-0.6,0.6l0,0c-0.2-0.1-0.5-0.3-0.7-0.3
	c-0.7,0-1.4,0-2.1,0c-0.2-0.1-0.5-0.1-0.7-0.2c-0.7-0.2-0.9-0.5-0.6-1.2c0.1-0.4,0.3-0.7,0.5-1.1c0.6,0.3,1.1,0.6,1.7,0.9
	c0.1,0,0.2,0.2,0.1,0.3c0,0.1-0.2,0.3-0.3,0.3c-0.3,0.1-0.6,0.1-0.9,0.2c0.9,0.5,1.8,0.3,2.9,0.3c-0.3-0.4-0.4-0.6-0.6-0.8
	c1-0.6,1.2-1.4,0.8-2.4L69,91.4z M67.6,86.3c-0.2-0.4-0.5-0.6-0.9-0.7c-0.6-1.9,0.3-2.6,2.1-2.2c0.3,0.6-0.4,0.8-0.5,1.2
	c-0.1,0.4-0.5,0.7-0.2,1.2c0.1,0.1-0.1,0.3-0.1,0.5C67.8,86.4,67.7,86.3,67.6,86.3L67.6,86.3z M169.8,90.1v1.3
	c-0.3-0.1-0.5-0.2-0.7-0.2c-1.1-0.3-2.4,0.2-2.3,1.6c0.1,1.4,0,2.9,0,4.3c0,0.3-0.2,0.5-0.2,0.8c-0.1,0.3-0.1,0.6,0.3,0.6
	c0.5,0,1,0,1.5,0.1c1.1,0,1.7-0.6,2.2-1.4c0.1-0.1,0.1-0.3,0.1-0.5c0-0.9,0-1.7-0.1-2.6c0-0.5-0.1-0.9-0.2-1.4
	c-0.1-0.3,0-0.6,0.3-0.8c0.4-0.2,0.5,0.2,0.5,0.4c0.2,1.1,0.7,2.1,0.5,3.3c-0.1,0.6-0.1,1.1-0.2,1.7c-0.1,0.7-0.4,1.3-1.1,1.6
	c-0.9,0.4-1.7,0.8-2.7,0.4c-0.3-0.1-0.6,0-0.9,0c-0.3,0-0.6,0-1,0.1c0.1-0.7,0.3-1.4,0.3-2c0-0.7-0.1-1.5-0.2-2.2
	c0-0.4-0.1-0.8-0.1-1.2c0-3.2,0-6.5,0-9.7c0-1,0-1,1-1c0.5,0,1-0.1,1.4-0.1c0.7,0.1,1.5,0.2,2.2,0.5s0.9,1,0.4,1.9
	c-0.1,0-0.2-0.1-0.3-0.2c-0.4-0.8-1.1-1.2-1.9-1.5c-0.9-0.4-1.8,0-1.8,1.1c0,1,0,1.9,0,2.9c0,0.6,0,1.3,0,1.9c0.1,0.8,0.3,0.9,1,0.7
	C168.5,90.3,169.1,90.2,169.8,90.1z M171.6,86.5c0,0.4,0.1,0.8,0,1.2c-0.1,0.5-0.3,1.1-0.5,1.6c-0.1,0.2-0.3,0.2-0.5,0.4
	c0-0.2-0.2-0.4-0.1-0.5c0.2-0.5,0.3-0.9,0-1.4c-0.1-0.1,0-0.4,0.1-0.5c0.2-0.3,0.5-0.5,0.8-0.7C171.4,86.5,171.5,86.5,171.6,86.5
	L171.6,86.5z M167.5,85.3c0,0.2,0.1,0.5,0.1,0.7c0,1.2,0,2.4,0,3.6c-0.1-0.2-0.3-0.3-0.3-0.5c0-1.2,0-2.4,0-3.5
	C167.3,85.5,167.4,85.4,167.5,85.3L167.5,85.3z M169.4,89.3c0.1-1.1,0.1-2.3,0.2-3.4C170.2,86.6,170.1,88.6,169.4,89.3
	C169.5,89.3,169.4,89.3,169.4,89.3L169.4,89.3z M167.6,89.6c0.4,0,0.8,0,1.3,0C168.4,90.1,168.2,90.1,167.6,89.6z M167.6,94.7
	c0,0.2,0,0.4,0.1,0.5C167.3,95.1,167.2,94.9,167.6,94.7z M169.6,85.5c-0.1-0.1-0.1-0.2-0.2-0.4C169.5,85.3,169.5,85.4,169.6,85.5z
	 M54.9,83.3L54.9,83.3 M52.3,85.7 M195.6,97.5c1,0,2,0,2.9,0c0.8,0,0.9,0,0.9,0.8c0,0.2,0,0.4,0,0.6c0,0.7-0.2,0.8-0.9,0.8
	c-1.5,0-3,0-4.6,0c-1.1,0-1.6-0.7-1.3-1.7c0.4-1.3,0.9-2.7,1.3-4c0.3-0.8,0.5-1.6,0.8-2.4c0.4-1.1,0.8-2.2,1.1-3.3
	c0.3-1.1,0.6-2.2,1-3.5c-0.8,0-1.4,0-2,0c-0.5,0-0.9-0.1-1.4-0.1s-0.6-0.3-0.7-0.8c-0.1-1.3,0.1-1.4,1.4-1.4c1.4,0,2.7,0,4.1,0
	c0.8,0,0.9,0.2,1,0.9c0.1,1.2-0.4,2.3-0.7,3.4c-0.4,1.5-0.9,3.1-1.3,4.6c-0.1,0.5-0.4,1-0.5,1.5c-0.4,1.2-0.7,2.5-1.1,3.7
	C195.6,97,195.6,97.2,195.6,97.5L195.6,97.5z M194.8,94.5c0.6,0.3,0.9-0.2,1-0.6c0.2-0.6,0.3-1.3,0.2-2c0-0.5-0.1-1,0.5-1.2
	c0.4-0.2,0.3-0.5-0.1-0.7c-0.4-0.2-0.6,0-0.7,0.4C195.5,91.8,195.2,93.1,194.8,94.5L194.8,94.5z M197.7,83.5
	c-0.7-0.4-1.3-0.3-1.8-0.1c-0.4,0.1-0.7,0.2-1,0c-0.1-0.1-0.2-0.1-0.3-0.1c-0.4,0-0.8,0-0.8,0.5s0.4,0.4,0.7,0.4
	c0.8,0,1.7-0.1,2.5-0.2C197.1,83.8,197.3,83.6,197.7,83.5L197.7,83.5z M196.9,89.7c0.2-0.2,0.3-0.3,0.3-0.4c0.2-0.7,0.5-1.3,0.7-2
	c0.1-0.3-0.1-0.5-0.4-0.4c-0.3,0.1-0.6,0.2-0.7,0.4C196.3,88.1,196.6,88.8,196.9,89.7L196.9,89.7z M197.3,86.3c0.7-0.1,1-0.6,0.8-1
	c0-0.1-0.2-0.2-0.3-0.2s-0.3,0.1-0.3,0.2C197.4,85.6,197.3,85.9,197.3,86.3L197.3,86.3z M226.3,84.3c0.1,0.8,0.1,1.7,0.2,2.5
	c0.1,1.3,0.3,2.7,0.5,4c0,0.1,0,0.3,0,0.4c0.6,1.5,0.5,3.1,0.8,4.8c0.2-0.5,0.3-0.8,0.4-1.2c0.1-0.2,0.2-0.4,0.2-0.6
	c0.1-1.6,0.1-3.2,0.4-4.7c0.2-1.1,0.1-2.3,0.3-3.4s0.4-2.3,0.6-3.5c0.4,0,0.7,0,1.1,0c1.2,0,1.2,0.1,1.1,1.3
	c-0.2,1.5-0.4,2.9-0.6,4.4c-0.3,2-0.5,4-1,6c-0.2,0.7-0.1,1.5-0.2,2.3c-0.1,0.9-0.2,1.8-0.4,2.6c0,0.2-0.3,0.6-0.5,0.6
	c-0.8,0.1-1.5,0.2-2.3,0.2c-0.4,0-0.6-0.3-0.7-0.7c-0.2-1.3-0.3-2.5-0.5-3.8c-0.1-0.5-0.3-1-0.3-1.5c-0.2-1.5-0.3-3-0.6-4.5
	c-0.2-1.5-0.5-3-0.7-4.5c-0.1-0.6-0.2-1.3-0.2-1.9c0-0.3,0-0.6,0.4-0.6c0.1,0,0.2,0,0.3,0c0.9,0,1.5,0.4,1.7,1.3
	C226.2,84.1,226.3,84.2,226.3,84.3L226.3,84.3z M225.5,84.6c-0.1,0-0.2,0-0.3-0.1c-0.1,0.4-0.3,0.7-0.2,1c0.4,1.2,0,2.4,0.4,3.6
	c0.3,1,0.1,2.1,0.4,3.2c0.2,0.5,0.3,1,0.8,1.3c-0.1-0.8-0.3-1.6-0.1-2.4c0.1-0.5-0.1-1-0.2-1.6c0-0.7,0.1-1.4-0.4-2
	c-0.1-0.1,0-0.2-0.1-0.3C225.7,86.4,225.6,85.5,225.5,84.6L225.5,84.6z M226.8,96.9c0.3-0.3,0.4-0.6,0.2-1c-0.1-0.2-0.2-0.4-0.1-0.5
	c0.3-0.6-0.1-0.9-0.5-1.2C226.1,95.3,226.2,96.3,226.8,96.9z M228.4,99.1c-0.4-0.4-1-0.3-1.4-0.4c-0.1,0-0.2,0.1-0.2,0.2
	s0.1,0.3,0.2,0.3C227.4,99.3,227.9,99.5,228.4,99.1z M99.8,96.6c0.1,0.2,0.4,0.5,0,0.7c-0.3-0.1-0.6-0.1-0.5,0.3
	c0,0.3,0.1,0.5,0.2,0.8c0.1,0.6,0,0.8-0.6,0.9S98,99.2,98,98.6c0-0.9,0.1-1.7,0.2-2.6c0-0.1,0-0.2,0-0.3c-0.5-2.1-1-4.2-1.4-6.3
	c-0.3-1.5-0.6-3.1-0.9-4.6c-0.1-0.3-0.2-0.6-0.2-1c-0.1-0.3-0.2-0.6,0.2-0.6c0.3-0.1,0.6,0.1,0.7,0.4c0.1,0.5,0.3,1.1,0.4,1.6
	c0.3,1.4,0.6,2.8,0.9,4.2c0.1,0.3,0.2,0.6,0.4,0.9c0.4,0.6,0.7,0.6,1.1,0.1c0.1-0.1,0.2-0.3,0.2-0.5c0.1-1,0.2-1.9,0.4-2.9
	c0.1-0.7,0.3-1.3,0.5-2c0.1-0.4,0.2-0.7,0.2-1.1c0.1-0.7,0.2-0.8,1.2-0.7c-0.2,1.1-0.5,2.2-0.7,3.3c-0.1,0.3-0.1,0.7-0.1,1.1
	c0,0.1,0.1,0.3,0,0.4c-0.6,0.7-0.5,1.6-0.7,2.4c-0.4,1.8-1.3,3.5-1.1,5.4C99.3,96.2,99.3,96.6,99.8,96.6L99.8,96.6z M208.9,93.2
	c0.1-0.2,0.1-0.4,0.2-0.5c0.2-0.1,0.3-0.2,0.5-0.4c-0.2-0.1-0.3-0.2-0.5-0.4c-0.1-0.3-0.1-0.6-0.2-0.9c0.5,0,0.5-0.3,0.5-0.7
	c0-0.5-0.3-0.5-0.7-0.5c0.1-1.2,0.6-2.4,0.2-3.6c0.2-0.3,0.6-0.5,0.7-0.9c0.2-0.5,0.4-0.9,1-1.1c0.5-0.2,0.8-0.6,0.9-1.1h0.5
	c0,0.6,0.1,1.1,0.7,1.3c0.2,0.1,0.3,0.3,0.4,0.4c0.2,0.5,0.2,1,0.4,1.5c0.5,1,0.3,2,0.2,3c-0.1,0.5,0.2,0.8,0.6,0.9v0.9
	c-0.9,0.2-1,0.3-0.5,1.1c0.1,0.2,0.2,0.4,0.3,0.5v0.9c-0.1,0.2-0.3,0.4-0.3,0.6c-0.1,0.9-0.1,1.8-0.2,2.7c0,0.2,0.2,0.4,0.3,0.6v0.7
	c-0.6,0.1-1.2,0.1-1.7,0.2c-0.3,0-0.6,0-0.8-0.1c-0.7-0.2-1.4-0.4-2.1-0.6c-0.1-0.5-0.1-1-0.2-1.4c0.4,0,0.5-0.3,0.5-0.6
	c0-0.4-0.3-0.6-0.7-0.6V94c0.3,0,0.6-0.1,0.6-0.5C209.5,93.3,209.2,93.2,208.9,93.2L208.9,93.2z M210.7,97.3c0,0.2,0.1,0.4,0.4,0.3
	c0.4-0.1,0.7-0.1,1.1-0.2c0.2-0.2,0.4-0.4,0.5-0.6c0.1-0.6,0.1-1.2,0.2-1.9c0-0.2,0-0.4,0-0.6c0-1.5,0-3,0.1-4.5
	c0-0.1,0-0.2,0.1-0.4c0-0.1,0-0.2,0-0.4c0-0.1-0.1-0.3-0.1-0.4c0-0.4,0-0.8,0-1.2c0.3-0.3,0.3-0.5,0-0.8h-0.1c0-0.4-0.1-0.9-0.1-1.3
	c-0.1-0.7-0.3-0.9-1-0.8c-0.7,0-1.1,0.3-1.2,0.9c0,0.2,0,0.5,0,0.7c0,2.3,0,4.6,0,6.9c0,0.2,0,0.5,0,0.7c-0.4,0.9-0.1,1.8,0.1,2.6
	C210.5,96.9,210.6,97.1,210.7,97.3L210.7,97.3L210.7,97.3z M214.3,90.4c-0.5-0.1-0.7-0.4-0.6-0.9c0.1-1,0.2-2-0.2-3
	c-0.2-0.5-0.2-1-0.4-1.5c-0.1-0.2-0.2-0.4-0.4-0.4c-0.6-0.2-0.7-0.7-0.7-1.3c0.5,0.2,1.1,0.3,1.6,0.6c0.1,0.1,0.3,0.3,0.3,0.4
	c0.2,0.7,0.4,1.4,0.4,2.2c0.1,1,0.1,2.1,0.2,3.1C214.4,89.7,214.3,90,214.3,90.4L214.3,90.4z M211.4,83.2c-0.1,0.6-0.4,0.9-0.9,1.1
	s-0.8,0.5-1,1.1c-0.1,0.3-0.4,0.6-0.7,0.9c0-0.3-0.1-0.6-0.1-0.8c0-0.1,0.1-0.3,0.2-0.4c0.2-0.4,0.2-0.9,0.5-1.2
	C210,83.2,210.7,83.1,211.4,83.2L211.4,83.2z M213.9,97.7c-0.1-0.2-0.3-0.4-0.3-0.6c0-0.9,0.1-1.8,0.2-2.7c0-0.2,0.2-0.4,0.3-0.6
	c0.6,0.7,0.3,1.5,0.3,2.2C214.3,96.5,214.5,97.3,213.9,97.7L213.9,97.7z M214.1,92.9c-0.1-0.2-0.2-0.4-0.3-0.5
	c-0.5-0.8-0.4-0.8,0.5-1.1C214.4,91.8,214.6,92.4,214.1,92.9z M208.9,95.2c0.4,0,0.7,0.2,0.7,0.6s-0.1,0.6-0.5,0.6
	C209,96,208.9,95.6,208.9,95.2L208.9,95.2z M208.7,89.8c0.4,0,0.7,0.1,0.7,0.5s-0.1,0.7-0.5,0.7C208.8,90.7,208.8,90.2,208.7,89.8
	L208.7,89.8z M208.9,93.2c0.3,0,0.6,0.1,0.6,0.5s-0.3,0.4-0.6,0.5V93.2L208.9,93.2z M209.1,92c0.2,0.1,0.3,0.2,0.5,0.4
	c-0.2,0.1-0.3,0.2-0.5,0.4V92L209.1,92z M246.7,92.4c0,0.1,0,0.1,0,0.2c-0.5,0.8-0.5,1.6,0,2.3c0.2,0.4,0.2,0.6,0,0.9
	c-0.2,0.4-0.4,0.7-0.7,1.2c-0.4-0.6-0.7-1.1-1-1.6c-0.1-0.1-0.1-0.1-0.2-0.2c-0.6-0.5-1.8-0.5-2.3,0c-0.1,0.1-0.1,0.2-0.2,0.4
	c-0.2,0.2-0.5,0.4-0.7,0.5c-0.5,0-0.6,0.3-0.4,0.7c0.3,0.7,0.1,1.3,0,2c-0.2,0.1-0.5,0.1-0.7,0.2c-0.5-0.2-0.4-0.7-0.3-1.1
	c0.1-0.6,0.2-1.3,0.3-1.9c0-0.2,0.2-0.4,0.4-0.6c0.4-0.3,0.4-0.6,0.1-0.9c-0.3-0.3-0.3-0.5-0.1-0.9c0.2-0.3,0.3-0.7,0.4-1.1
	c0-0.1,0.1-0.3,0-0.4c-0.3-0.9-0.2-1.2,0.6-1.9c-0.7-0.9-0.3-1.8-0.2-2.8c0.1-0.7,0-1.4,0.1-2.1s0.3-1.3,0.6-2
	c0-0.1,0.3-0.2,0.5-0.2c0.4,0,0.9,0,1.3,0c0.2,0.1,0.4,0.2,0.5,0.4c-0.1,0.7,0.1,1.4,0.6,1.9c-0.1,0.1-0.1,0.2-0.2,0.2
	c-0.7,0.5-0.7,0.5-0.1,1c0.4,0.4,0.5,0.8,0.3,1.3c-0.9,0.1-0.9,0.1-1.1-0.7c-0.1-0.3-0.2-0.5-0.3-0.7c-0.1-0.1-0.1-0.2-0.2-0.4
	c0-0.3,0-0.7-0.5-0.6c-0.2,0-0.5,0.3-0.6,0.5c-0.2,1.3-0.3,2.6-0.4,3.9c0,0.3,0.2,0.6,0.3,0.9c0,0.1,0,0.2,0,0.4
	c-0.6,0-0.6,0.6-0.6,0.9c0,0.4,0,1,0.6,1.1c0.5,0,1,0,1.5,0c0.3,0.2,0.4,0,0.5-0.3c0.2-0.7,0.5-1.5,0.7-2.2c0.1-0.2,0.1-0.4,0.2-0.5
	c0.3,0,0.5,0.1,0.5,0.5c0,0.3-0.1,0.5-0.1,0.8C246,91.9,246.2,92.3,246.7,92.4L246.7,92.4z M243,93.7V94c0.3,0,0.7,0,1,0
	c0-0.1,0-0.1,0-0.2h-1V93.7z M245.7,90.2c-0.1,0.2-0.1,0.4-0.2,0.5c-0.1-0.1-0.2-0.2-0.2-0.3C245.4,90.3,245.5,90.3,245.7,90.2
	L245.7,90.2z M244.8,83.5c-0.2-0.1-0.4-0.2-0.5-0.4C244.4,83.3,244.6,83.4,244.8,83.5z M243.9,86.2c0.1,0.1,0.1,0.2,0.2,0.4
	c-0.1,0-0.3-0.1-0.4-0.1C243.7,86.4,243.8,86.3,243.9,86.2L243.9,86.2z M242.3,95.6c0.1-0.1,0.1-0.2,0.2-0.4
	c0.1,0.1,0.2,0.2,0.4,0.3c-0.1,0-0.2,0-0.3,0C242.4,95.6,242.3,95.6,242.3,95.6L242.3,95.6z M155.3,83.4c-1.1,1.2-0.5,2.5-0.3,3.7
	c0.1,1.1,0.2,2.2,0.1,3.3c0,1.2,0,2.4,0,3.7c0,0.7,0.1,1.5,0.1,2.2c0,0.4-0.2,0.7-0.3,1.1c-0.1,0.5-0.2,0.9,0.2,1.3
	c0.1,0.1,0.1,0.4,0,0.5c-0.2,0.1-0.4,0.1-0.6,0.1c-0.1,0-0.3-0.3-0.3-0.4c0-0.4,0-0.9,0-1.3c0-0.8,0.1-1.6,0.1-2.4s0-1.6,0-2.4
	c0-1.1-0.1-2.1,0-3.2c0.2-1.8,0.1-3.6-0.2-5.4C153.9,83.2,154.1,83.1,155.3,83.4L155.3,83.4z M181.7,99.7c-0.1-0.2-0.2-0.3-0.2-0.5
	c0.1-0.9-0.3-1.8,0-2.7c0.1-0.4-0.1-0.9-0.1-1.4c0-2.5,0-5,0-7.5c0-1.6,0-3.2,0-4.8c0.6-0.1,1.2-0.2,1.8-0.2s0.8,0.2,0.8,0.8
	c0,1.7,0,3.3,0,5c0,3.5,0,6.9,0,10.4c0,0.8-0.1,0.9-0.9,0.9c-0.4,0-0.8,0-1.2,0C181.8,99.8,181.7,99.7,181.7,99.7L181.7,99.7z
	 M183.2,91.2c0-1.8,0-3.6,0-5.5c0-0.7,0-1.3,0-2c0-0.5-0.5-0.8-0.9-0.6c-0.2,0.1-0.3,0.5-0.3,0.7c0,1.4,0,2.8,0,4.3
	c0,2.2,0,4.3,0,6.5c0,1.3,0.3,2.6,0,3.9c-0.1,0.3,0.1,0.6,0.5,0.6c0.3,0,0.6,0,0.7-0.4c0-0.2,0-0.5,0-0.7
	C183.2,95.9,183.2,93.6,183.2,91.2L183.2,91.2z M148.4,66.9c0.1,0,0.1,0.1,0.2,0.1C148.6,66.9,148.5,66.9,148.4,66.9z M103.6,69.4
	c-1.6,0-3.2,0-4.8,0c-0.5,0-1-0.1-1.5-0.2c-0.1-0.3-0.2-0.6-0.3-0.9l0.1-1.4c0.5-0.1,0.4-0.5,0.4-0.9c0-1.6,0-3.2,0-4.9
	c0.1-0.8,0.2-1.6,0.2-2.4c0-7.1-0.1-14.3-0.2-21.4c0-1.6,0-3.2,0-4.8c0-1.4,0-2.8,0-4.2c-0.1-0.1-0.2-0.2-0.4-0.4c0-0.2,0-0.4,0-0.5
	c0.4-0.1,0.9-0.1,1.3-0.2c0.1,0.2,0.1,0.4,0.2,0.5c-0.1,0.5-0.2,1-0.2,1.5c0,12.6,0,25.2,0,37.7c0,0.4,0.1,0.7,0.1,1.1
	c0.1,0.4,0.3,0.6,0.7,0.6c0.8,0,1.7,0,2.5,0c0.1,0,0.3-0.1,0.5-0.2c-0.6-0.6-1.5-0.1-2.1-0.7h2.5C103.4,68.1,103.7,68.6,103.6,69.4
	L103.6,69.4z M97.5,28.3c0,1.4,0,2.8,0,4.2c0,1.6,0,3.2,0,4.8c0.1,7.1,0.1,14.3,0.2,21.4c0,0.8-0.1,1.6-0.2,2.4
	c-0.1,0.1-0.3,0.2-0.4,0.4c0-0.5-0.1-1-0.1-1.5c0-10.3,0-20.5,0-30.8c0-0.3,0.1-0.6,0.1-1C97.2,28.2,97.3,28.3,97.5,28.3L97.5,28.3z
	 M97.1,61.5c0.1-0.1,0.3-0.2,0.4-0.4c0,1.6,0,3.2,0,4.9c0,0.3,0.1,0.7-0.4,0.9C97.1,65.1,97.1,63.3,97.1,61.5z M138.5,98.1v-1.8
	c0-3.9,0-7.9,0-11.8c0-0.6,0-1.2,0-1.8c0.6,0,1.2-0.1,1.8-0.1c0.4,0,0.7,0.8,0.6,1.3c-0.1,0.4-0.1,0.8-0.1,1.2c0,2.7,0,5.5,0,8.2
	c0,1-0.1,1.9-0.2,2.8c0,0.5,0.1,1,0.2,1.6h3.6c0.1,0.2,0.2,0.4,0.2,0.5c0,0.4,0,0.7,0,1.1c-0.3,0.6-0.8,0.5-1.3,0.5
	c-1.3,0.1-2.7,0-4,0c-0.4,0-0.7-0.2-0.9-0.6C138.5,98.9,138.5,98.5,138.5,98.1L138.5,98.1z M139.5,99.2
	C139.5,99.2,139.5,99.3,139.5,99.2c1.4,0.1,2.8,0.1,4.1,0.1c0.2,0,0.3-0.3,0.5-0.4c-0.2-0.1-0.3-0.4-0.5-0.4c-0.6-0.1-1.3,0-1.9,0
	c-1.2-0.1-1.9-0.6-1.7-1.8c0.2-1.2,0.1-2.5,0-3.7c-0.1-3.1,0-6.3,0.1-9.4c0-0.1-0.1-0.1-0.2-0.3c-0.1,0.2-0.3,0.4-0.3,0.6
	c0,0.8-0.1,1.5-0.1,2.3c0,0.7,0,1.4,0,2c0,0.5,0,1,0,1.4c0,0.5,0,1,0,1.5c-0.1,1.4-0.2,2.7-0.2,4.1
	C139.3,96.5,139.4,97.8,139.5,99.2L139.5,99.2z M244.8,95.2c0.1,0.1,0.1,0.1,0.2,0.2c-0.1,0.1-0.1,0.1-0.2,0.2c-0.1,0-0.1,0-0.2,0
	c-0.3,0-0.6,0-0.9-0.1C243.9,95,244.4,95.3,244.8,95.2L244.8,95.2z M244.8,95.2c-0.4,0.1-0.8-0.2-1.1,0.3c-0.3,0-0.6,0-0.9,0
	c-0.1-0.1-0.2-0.2-0.4-0.3C243,94.7,244.2,94.7,244.8,95.2z M190.2,66.1c0-0.3-0.1-0.7,0.3-0.9c0.1,0.1,0.1,0.1,0.2,0.2
	c0,0.1,0,0.1,0,0.2C190.6,65.8,190.4,66,190.2,66.1L190.2,66.1z M131.4,27.2h7c0,0.5,0.3,0.5,0.7,0.5s0.7-0.1,0.7-0.5
	c0.1,0.2,0.3,0.4,0.3,0.6c0.1,0.3,0,0.5,0,0.8c0,13.4,0,26.8,0,40.2c-0.1-0.1-0.2-0.1-0.4-0.2c0-0.4,0-0.7-0.1-1.1h-1.4
	c-0.2-0.1-0.4-0.2-0.5-0.4c-0.2-0.8-0.1-1,0.7-1.4c0.7-0.3,0.7-0.6,0.2-1.1c-0.3-0.3-0.4-0.6-0.3-1c0.1-0.5,0.1-1-0.1-1.3
	c-0.4,0-0.7-0.1-1-0.1c-0.2,0-0.4,0.1-0.6,0.2c-0.1-0.1-0.1-0.2-0.2-0.4c0.2-0.1,0.5-0.2,0.7-0.4c0.3-0.1,0.5-0.3,0.7-0.5
	c0.1-0.1,0.3-0.4,0.2-0.5s-0.3-0.2-0.5-0.3c-0.4,0-0.8,0-1.1,0.1c-0.6,0.1-1.2,0.1-1.8,0.2c-0.2,0-0.4,0.2-0.5,0.1
	c-0.6-0.6-1.4-0.3-2.1-0.4c-0.5,0-0.9-0.2-1-0.7c-0.1-0.4-0.3-0.7-0.8-0.7c-0.4,0-0.5-0.2-0.5-0.6c0-0.2-0.1-0.3-0.1-0.5
	c-0.2,0.1-0.4,0.2-0.6,0.2v-1.8c0.9-0.1,1-0.2,0.8-1c-0.2-0.7-0.2-0.7,0.5-1.2c0.6-0.3,0.6-0.6,0-0.8c-0.5-0.2-0.6-0.6-0.6-1.1
	c0.1-0.9,0.1-1.8,0.2-2.8c0-0.5,0.2-0.8,0.8-0.7c0.2,0,0.5-0.1,0.6-0.2c0.3-0.5,0-1.1-0.5-1.3c-0.6-0.2-0.6-0.4-0.1-0.7
	c0.1-0.1,0.2-0.2,0.3-0.3c0,0,0-0.1-0.1-0.1c-0.3,0-0.6,0.1-1,0.1c-0.1-0.7-0.2-1.3-0.2-1.9c-0.3,0.1-0.5,0.2-0.7,0.3v-0.9
	c0.1-0.1,0.3-0.1,0.4-0.2c-0.1-0.1-0.3-0.2-0.4-0.3v-0.9c0.7,0.1,1-0.1,1-0.7c0-0.2,0-0.4-0.1-0.5c-0.1-0.6-0.3-1.2-0.3-1.8
	s0.1-1.2,0.1-1.9c0-1.5,0-3,0-4.6c0-0.4,0-0.8,0.6-0.9s0.8-0.5,0.5-1.1c-0.2-0.4-0.1-0.6,0.1-1c0.2-0.2,0.4-0.7,0.3-0.9
	C131,28.4,131.4,27.8,131.4,27.2L131.4,27.2z M130.5,41.6c0.1,0,0.2,0.1,0.2,0.1c0.1-0.2,0.3-0.4,0.3-0.5s-0.2-0.3-0.4-0.4l-0.1,0.1
	V41.6L130.5,41.6z M102.7,67.8h-2.5c0.6,0.6,1.4,0,2.1,0.7c-0.2,0.1-0.4,0.2-0.5,0.2c-0.8,0-1.7,0-2.5,0c-0.4,0-0.7-0.2-0.7-0.6
	s-0.1-0.7-0.1-1.1c0-12.6,0-25.2,0-37.7c0-0.5,0.1-1,0.2-1.5c0.4,0,0.7,0,0.7-0.5h2.9c0.1,0.2,0.1,0.5,0.2,0.7
	c0,0.3-0.1,0.5-0.1,0.8c-0.1,0.8,0,0.9,0.8,1c-0.2,0.3-0.4,0.6-0.5,0.9c-0.3,0-0.5,0-0.8,0c-0.2,0-0.4,0.1-0.5,0.3
	c-0.3,0.4-0.1,1.9,0.2,2.3c0.5,0.5,0.5,0.7,0.1,1.2c-0.5,0.6-0.5,1.2-0.3,1.8s0.1,1.3,0.5,1.8c0.1,0.1,0,0.5-0.1,0.7
	c-0.3,0.4-0.4,0.9-0.4,1.4c0,0.6,0,1.1-0.1,1.7c0,0.4,0,0.8,0.4,1s0.7,0.1,1-0.2c0.1,1.1,0.7,2.1-0.1,3.2c-0.1,0.1,0,0.4-0.1,0.6
	c-0.7,0.4-0.7,1.2-1.2,1.7c-0.1,0.1,0,0.5,0.1,0.6c0.5,0.5,0.4,1.1,0.4,1.7c0,0.7,0.1,1.3,0.1,2c0,0.3-0.1,0.6-0.3,0.8
	c-0.5,0.7-0.5,0.8,0,1.4c0.8,0.8-0.4,1.7,0.2,2.4c0,0.1-0.2,0.3-0.3,0.5c-0.1,0.3-0.3,0.6-0.3,1c-0.2,1.3,0.3,2.7-0.2,4
	c-0.1,0.2,0.2,0.7,0.3,0.7c0.3,0,0.6-0.2,0.8-0.4c0.2-0.3,0.3-0.6,0.4-1c0.1,0.4,0.2,0.8,0.2,1.2c0,1.3-0.3,2.7,0.4,4
	C102.7,67.1,102.7,67.5,102.7,67.8L102.7,67.8z M103,29.7c-0.9-0.1-1-0.2-0.8-1c0-0.3,0.1-0.5,0.1-0.8c0.5,0,0.5-0.3,0.5-0.7
	c0.1,0,0.2,0,0.4,0c0,0.1,0.1,0.1,0.1,0.2l0.2-0.2h0.4c0.1,0.3,0.2,0.7,0.3,1c0.1,0,0.2,0,0.3,0c0.2-0.4,0.3-0.7,0.5-1.1h0.7
	c0.2,0.5,0.5,0.5,0.7,0c3.4,0,6.8,0,10.2,0c0.6,0,1.2,0.1,1.9,0.1c0.5,0,1-0.1,1.5-0.1c2.3,0,4.7,0,7,0.1c0.6,0,1.2,0,1.8-0.1
	c0.2,0.5,0.5,0.5,0.7,0h1.8c0,0.6-0.4,1.2,0,1.9c0.1,0.2-0.1,0.6-0.3,0.9s-0.3,0.5-0.1,1c0.3,0.6,0.1,1-0.5,1.1
	c-0.6,0.1-0.6,0.5-0.6,0.9c0,1.5,0,3,0,4.6c0,0.6-0.1,1.2-0.1,1.9c0,0.6,0.2,1.2,0.3,1.8c0,0.2,0.1,0.4,0.1,0.5c0,0.6-0.4,0.8-1,0.7
	c0-0.6,0.1-1.3,0.1-2c0-2.6,0-5.3,0-7.9c0-0.9-0.1-1.9-0.3-2.8c-0.1-0.5-0.5-1-1-0.9c-0.9,0.1-1.6-0.2-2.5-0.2c-0.3,0-0.5,0-0.8,0
	c-0.8,0.1-1.6,0.7-1.8,1.4c-0.9,0.2-1.3,0.8-0.8,1.6c0.2,0.3,0.5,0.6,0.8,1c-0.1,0.2-0.1,0.4-0.2,0.5c-0.5,0-0.7,0.2-0.7,0.7
	c0,0.7,0,1.4,0,2.1c-0.2,0-0.4,0-0.7-0.1c0,0.3,0,0.6-0.1,0.8c0,0.9-0.2,0.9-1.1,0.9c0-0.2-0.1-0.5-0.1-0.5c-0.4,0-0.3,0.2-0.2,0.5
	c-0.1,0-0.2,0.1-0.3,0.1c-0.8,0-0.9,0.1-1,0.8c-0.2,1-0.3,1.9-0.4,2.9c0,0.1,0.1,0.3,0.1,0.4c0.1,0.3,0.1,0.6,0.2,0.9
	c0,0.5-0.1,0.6-0.6,0.6c-0.4,0-0.8,0-1.1,0c-0.1,0-0.1-0.2-0.2-0.2c0.2-0.1,0.5-0.4,0.5-0.4c-0.2-0.4,0.4-1-0.3-1.4
	c0-0.6,0.6-0.3,0.8-0.5c0-0.6,0-1.2,0.1-1.7c0.3-0.4,0.6-0.8,0.8-1.2c0.2-0.3,0.3-0.7,0.7-0.8c0.4-0.1,0.5-0.6,0.2-0.9
	c-0.2-0.2-0.5-0.2-0.7-0.3c0.1-0.2,0.2-0.5,0.4-0.7c0.2,0,0.4,0,0.6,0.1c0.1,0,0,0,0,0s-0.1,0-0.1,0.1l0.1,0.1c0,0,0.1-0.1,0-0.2
	c-0.1-0.4-0.1-0.7-0.5-0.8c0.2-0.4,0.4-0.8,0.5-1.3c0.2,0,0.6,0,0.6,0c0.1-0.3-0.1-0.4-0.4-0.5c-0.1,0-0.1,0-0.2,0
	c0.3-0.6,0.6-1.2,0.8-1.8c0.4-1.1,0-1.7-1.1-1.8c-0.9-0.1-1.8-0.1-2.7-0.1c-0.4,0-0.9,0-1.3,0.1c-0.7,0.1-1.2,0.4-1.4,1
	c-1,2.7-1.9,5.5-2.9,8.2c-0.6,1.7-1.1,3.4-1.6,5.2c0,0.1-0.2,0.2-0.3,0.3c-0.1-0.2-0.1-0.2-0.1-0.3c0-1.4-0.1-2.8,0-4.1
	c0.1-0.9,0.4-1.8,0-2.7c0-0.1,0-0.2,0-0.3c0-0.9,0-1.7,0-2.6c0-0.2,0-0.4,0-0.6c0.4-1,0.3-1.9,0-2.9c-0.3-0.7-0.8-1.3-1.6-1.3
	c-1.1,0-2.2,0-3.3,0C103.4,29,103,29.1,103,29.7L103,29.7z M121.5,33.2c-0.4-0.3-0.5-0.4-0.6-0.5c-0.1,0.1-0.2,0.3-0.2,0.3
	c0,0.1,0.2,0.3,0.3,0.3C121.1,33.4,121.3,33.3,121.5,33.2L121.5,33.2z M120.8,34c-0.1,0-0.2-0.1-0.2-0.1c0,0.1-0.1,0.2-0.1,0.2
	c0,0.1,0.1,0.1,0.2,0.1C120.7,34.1,120.7,34.1,120.8,34z M119.6,33.9C119.6,33.9,119.6,33.8,119.6,33.9
	C119.6,33.8,119.5,33.9,119.6,33.9C119.5,33.9,119.5,33.9,119.6,33.9C119.5,33.9,119.6,33.9,119.6,33.9L119.6,33.9z M120.2,36.1
	C120.3,36.1,120.3,36.1,120.2,36.1C120.3,36,120.3,36,120.2,36.1C120.3,36,120.2,36,120.2,36.1C120.2,36,120.2,36.1,120.2,36.1z
	 M139.8,68.7c0.1,0.1,0.2,0.1,0.4,0.2c0,0.4-0.2,0.5-0.6,0.5c-0.3,0-0.5,0-0.8,0c-11.5,0-23,0-34.5,0c0.1-0.9,0.1-0.8,0.9-0.8
	c0.6,0.1,1.2,0.2,1.8-0.3c0.1-0.1,0.5,0,0.7,0.1s0.4,0.5,0.7,0.3c1.3,0,2.6,0,3.9,0c0.6,0,1-0.1,1.3-0.6c0.5,0.4,0.9,0.6,1.4,0.1
	c0.1-0.1,0.3,0,0.5,0s0.3,0.1,0.5,0.1c1.2-0.1,2.3,0,3.4,0.3c0.2,0,0.4,0.1,0.5,0c0.5-0.4,1-0.9,1-1.6c0-0.3,0-0.7,0.1-1
	c0.2-0.7,0.1-1.2-0.4-1.7c-0.4-0.4-0.3-0.7,0.1-1c0.4-0.2,0.8-0.4,1.4-0.7c-0.7-1-0.5-2-0.4-3.1c0.1-0.7,0.1-1.4,0.2-2
	c0-0.3,0-0.6,0.4-0.7c0.1,0.2,0.2,0.4,0.2,0.6c0,1.7-0.1,3.3,0.3,5c0,0.1,0.1,0.3,0,0.4c-0.5,1-0.3,2.1-0.2,3.2c0,1,0.7,2.2,2.3,2.2
	c0.6,0,1.3-0.1,1.8,0.1c0.6,0.2,1.1,0,1.6-0.3h0.2c0.1,0,0.1,0,0.2,0c0.7,0.6,1.4,1.1,2.3,1c0.2,0,0.5,0,0.7,0.1
	c0.4,0,0.8,0.2,1.1,0.1c1-0.4,2.2,0.2,3.1-0.5c0.1,0,0.2,0,0.3,0C137.4,68.8,138.6,68.3,139.8,68.7L139.8,68.7z M108.4,68.7
	c-0.4,0.2-0.5-0.2-0.7-0.3c-0.2-0.1-0.6-0.2-0.7-0.1c-0.5,0.5-1.2,0.3-1.8,0.3c-0.8-0.1-0.8-0.1-0.9,0.8h-0.7
	c0.2-0.7-0.1-1.3-0.9-1.6c0-0.3,0-0.6,0.4-0.7c0.6,0.2,0.6,0.2,0.7-0.4h0.1l0,0l0,0c0,0.1,0,0.1,0.1,0.1c0.2,0.7,0.7,0.7,1.3,0.7
	c0.5,0,1.1-0.1,1.6-0.2c0.4,0.1,0.8-0.1,1.1-0.4C108,67.5,108.2,68.1,108.4,68.7L108.4,68.7z M147.4,64.9c-0.1-0.1-0.1-0.2-0.2-0.4
	c0-0.4,0-0.8,0-1.3c0-8.4,0-16.7,0-25.1c0-0.4,0-0.7,0.1-1.1c0.1,0,0.3,0,0.4,0c0.1,0.6,0.1,1.2,0.2,1.8c0,0.3,0,0.6,0,0.9v0.4
	c0,0.7,0,1.3,0,2v7.2c0,4.9,0,9.7,0,14.6C147.9,64.2,148.1,64.8,147.4,64.9L147.4,64.9z M149,40.5c-0.1,0-0.1-0.1-0.2-0.1
	c0-0.3,0-0.5,0-0.8v-0.1c0.2,0.1,0.4,0.2,0.7,0.2c2.8,0,5.5,0,8.3,0c0.7,0.1,1.3,0.1,2,0.2c0,0.2,0,0.4,0,0.5c-0.5,0-1.1,0-1.6,0
	C155.1,40.5,152,40.5,149,40.5L149,40.5z M159.7,39.9c-0.7-0.1-1.3-0.1-2-0.2c0.6-0.1,1.3-0.2,1.9-0.3V37c-3.5,0-6.9,0-10.4,0
	c-0.4,0-0.5,0.2-0.5,0.6c0,0.7,0,1.3,0,2v0.1c-0.2-0.3-0.3-0.5-0.5-0.8c0-0.5,0-1.1,0-1.6c0.3-0.4,0.7-0.6,1.2-0.5
	c0.4,0,0.8,0,1.1,0c0.2,0,0.5,0,0.7,0c2.6,0,5.1,0,7.7,0c1,0,1.1,0.1,1.1,1.1c0,0.4,0,0.8,0,1.2C160,39.4,159.9,39.7,159.7,39.9
	L159.7,39.9z M149.1,65.6c3.3,0,6.6,0,9.9,0c0.4,0,0.9,0.2,0.9-0.5c0-0.3-0.1-0.6-0.1-0.9c0-0.2,0.2-0.4,0.4-0.6
	c0.1,0.2,0.3,0.3,0.4,0.5c0.1,0.3,0,0.7,0.1,1.1c0.1,0.2,0.1,0.3,0.2,0.5c-0.1,0.4-0.5,0.4-0.8,0.4c-3.4,0-6.8,0-10.2,0
	C149.6,65.9,149.4,65.7,149.1,65.6z M160.4,50.2c0,0.3,0,0.6,0,0.9c-0.2,0-0.3,0-0.5,0c0-0.1,0-0.1-0.1-0.2c0-0.3,0.1-0.6-0.3-0.5
	h-0.1c-3.5,0-7,0-10.5,0c-0.1,0-0.1,0.1-0.2,0.1c-0.4-0.2-0.3-0.4,0-0.5c0.4-0.1,0.8-0.2,1.2-0.2c0.2,0,0.3,0.1,0.5,0.1
	c0.6,0,1.1,0,1.7,0h0.3c0.5,0,1,0.3,1.4-0.3c0.5,0,1.1,0,1.6,0c0.6,0.5,1.2,0.5,1.8,0c0.2,0,0.4,0,0.5,0c0.2,0.1,0.5,0.3,0.7,0.3
	C159.1,50.1,159.8,50.1,160.4,50.2L160.4,50.2z M148.4,42.1c0,2.4,0,4.8,0,7.2h-0.6v-7.2C148.1,42.1,148.2,42.1,148.4,42.1
	L148.4,42.1z M147.3,33.7c0-0.3,0-0.6,0-0.9c0.1-0.1,0.3-0.3,0.4-0.4c0.2-0.1,0.5-0.1,0.7-0.2c0,0.8,0,1.6,0,2.3
	c-0.2,0.2-0.5,0.4-0.7,0.5c0-0.3,0-0.7,0-1C147.6,34,147.4,33.8,147.3,33.7L147.3,33.7z M147.3,33.7c0.1,0.2,0.3,0.3,0.4,0.5
	c0.1,0.3,0,0.6,0,1v1.1c0,0.3,0,0.6,0,0.9c-0.1,0-0.3,0-0.4,0C147.3,36,147.3,34.8,147.3,33.7L147.3,33.7z M189.2,35.5
	c0-0.2,0-0.4,0-0.5s0-0.2,0-0.4c0-1.1,0-2.3,0.1-3.4c0.1,0.1,0.3,0.3,0.3,0.4c0,1.2,0,2.5,0,3.7C189.5,35.3,189.3,35.4,189.2,35.5
	L189.2,35.5z M147.7,37.1c0-0.3,0-0.6,0-0.9c0.2,0,0.4,0,0.6-0.1c0,0.4,0,0.8-0.1,1.2c0,0.5,0,1.1,0,1.6c-0.1,0-0.2,0-0.4,0
	C147.8,38.3,147.8,37.7,147.7,37.1L147.7,37.1z M158.1,49.5c0.5,0,1.1,0,1.6,0c-0.5,0.6-1.1,0.4-1.6,0.2
	C158.1,49.6,158.1,49.5,158.1,49.5L158.1,49.5z M151.3,36.7c-0.2,0-0.5,0-0.7,0c0.1-0.2,0.2-0.3,0.4-0.5
	C151.1,36.4,151.2,36.6,151.3,36.7L151.3,36.7z M147.7,32.4c-0.1,0.1-0.3,0.3-0.4,0.4c0-0.1,0-0.3,0-0.4
	C147.4,32.4,147.6,32.4,147.7,32.4z M188.6,29.3c0.2,0,0.4,0.1,0.6,0.1C189,29.4,188.7,29.7,188.6,29.3z M194.8,94.5
	c0.3-1.4,0.7-2.8,1-4.1c0.1-0.4,0.3-0.6,0.7-0.4s0.4,0.6,0.1,0.7c-0.6,0.3-0.5,0.7-0.5,1.2c0,0.7-0.1,1.3-0.2,2
	C195.7,94.3,195.4,94.8,194.8,94.5L194.8,94.5z M197.7,83.5c-0.4,0.2-0.5,0.4-0.8,0.4c-0.8,0.1-1.6,0.2-2.5,0.2
	c-0.3,0-0.8,0.1-0.7-0.4c0-0.4,0.5-0.5,0.8-0.5c0.1,0,0.2,0,0.3,0.1c0.3,0.2,0.7,0.2,1,0C196.4,83.1,197,83.1,197.7,83.5L197.7,83.5
	z M196.9,89.7c-0.3-0.9-0.6-1.6-0.2-2.4c0.1-0.2,0.5-0.4,0.7-0.4c0.3-0.1,0.5,0.1,0.4,0.4c-0.2,0.7-0.4,1.3-0.7,2
	C197.2,89.4,197.1,89.5,196.9,89.7L196.9,89.7z M197.3,86.3c0.1-0.4,0.1-0.7,0.2-1c0-0.1,0.2-0.2,0.3-0.2s0.2,0.1,0.3,0.2
	C198.3,85.7,198,86.2,197.3,86.3L197.3,86.3z M225.5,84.6c0.1,0.9,0.2,1.8,0.3,2.7c0,0.1,0,0.3,0.1,0.3c0.6,0.6,0.4,1.3,0.4,2
	c0,0.5,0.3,1.1,0.2,1.6c-0.2,0.8,0,1.6,0.1,2.4c-0.5-0.3-0.7-0.8-0.8-1.3c-0.3-1-0.1-2.2-0.4-3.2c-0.3-1.2,0-2.4-0.4-3.6
	c-0.1-0.3,0.1-0.7,0.2-1C225.3,84.6,225.4,84.6,225.5,84.6L225.5,84.6z M226.8,96.9c-0.6-0.6-0.8-1.6-0.4-2.7
	c0.4,0.3,0.9,0.6,0.5,1.2c-0.1,0.1,0.1,0.3,0.1,0.5C227.2,96.3,227.1,96.6,226.8,96.9z M212.7,87.7v-0.8
	C213.1,87.2,213.1,87.4,212.7,87.7z M212.8,90l0.1-0.4L212.8,90z M212.8,89.3c0-0.1-0.1-0.3-0.1-0.4C212.8,89,212.8,89.2,212.8,89.3
	z M242.8,91.3c0,0.3-0.1,0.6-0.1,0.9c0,0.4,0.1,0.7,0.1,1.1c-0.6-0.1-0.6-0.7-0.6-1.1S242.2,91.3,242.8,91.3L242.8,91.3z M243,93.7
	h1c0,0.1,0,0.1,0,0.2c-0.3,0-0.7,0-1,0V93.7L243,93.7z M183.2,91.2c0,2.3,0,4.7,0,7c0,0.2,0,0.5,0,0.7c-0.1,0.4-0.4,0.4-0.7,0.4
	c-0.4,0-0.6-0.3-0.5-0.6c0.3-1.3,0-2.6,0-3.9c0-2.2,0-4.3,0-6.5c0-1.4,0-2.8,0-4.3c0-0.3,0.1-0.6,0.3-0.7c0.4-0.3,0.9,0,0.9,0.6
	c0,0.7,0,1.3,0,2C183.2,87.6,183.2,89.4,183.2,91.2L183.2,91.2z M139.5,99.2c-0.1-1.4-0.2-2.8-0.2-4.1c0-1.4,0.1-2.7,0.2-4.1
	c0-0.5,0-1,0-1.5s0-1,0-1.4c0-0.7,0-1.4,0-2c0-0.8,0-1.5,0.1-2.3c0-0.2,0.2-0.3,0.3-0.6c0.1,0.2,0.2,0.2,0.2,0.3
	c0,3.1-0.1,6.3-0.1,9.4c0,1.2,0.1,2.5,0,3.7c-0.2,1.3,0.5,1.7,1.7,1.8c0.6,0,1.3,0,1.9,0c0.2,0,0.3,0.3,0.5,0.4
	c-0.2,0.1-0.3,0.4-0.5,0.4C142.3,99.3,140.9,99.3,139.5,99.2C139.5,99.3,139.5,99.2,139.5,99.2L139.5,99.2z M128.3,67.8
	c-0.5,0.3-0.9,0.5-1.6,0.3c-0.6-0.2-1.2-0.1-1.8-0.1c-1.6,0-2.3-1.2-2.3-2.2s-0.3-2.1,0.2-3.2c0.1-0.1,0-0.3,0-0.4
	c-0.4-1.6-0.2-3.3-0.3-5c0-0.2-0.1-0.4-0.2-0.6c0-1,0-2,0-3.1c0.1-0.4,0.2-0.8,0.2-1.2c0-2.9,0-5.7,0-8.6c0-3.5,0-7.1,0-10.6
	c0.1-0.2,0.1-0.4,0.2-0.5c0.3-0.8,0.2-1.7,0-2.5c0.2-0.7,1-1.4,1.8-1.4c0.3,0,0.5,0,0.8,0c0.8,0,1.6,0.4,2.5,0.2
	c0.5-0.1,0.9,0.4,1,0.9c0.1,0.9,0.3,1.9,0.3,2.8c0,2.6,0,5.3,0,7.9c0,0.6-0.1,1.3-0.1,2v15.8c0,0.6,0,1.2,0,1.8s-0.2,1.2,0.2,1.7
	c0.4-0.1,0.9-0.2,1.3-0.1c1.3,0.4,2.5,0.2,3.8,0.1c0.8,0,1.6-0.1,2.3,0.4c0.1,0.1,0.1,0.2,0.2,0.4c0,0.2,0,0.4,0.1,0.5
	c0.6,1.4,0.3,2.8-0.3,4.1c-0.2,0.5-0.5,0.8-1.1,0.6c-0.2-0.1-0.5-0.1-0.6,0c-0.5,0.3-1,0.1-1.5,0.1s-1,0-1.5,0
	c-0.6,0-1.3,0.2-1.9-0.1c-0.3-0.1-0.8,0-1.2-0.1c-0.1,0-0.1,0-0.2,0L128.3,67.8L128.3,67.8z M128.3,54.5c0-0.1,0-0.2,0-0.3
	c0-4.6,0-9.1,0-13.7c0-3.2,0-6.4,0-9.6c0-0.1-0.1-0.2-0.1-0.3c0-0.1,0.1-0.2,0.1-0.4c0.3-0.4,0-0.5-0.2-0.7
	c-0.2,0.1-0.5,0.1-0.7,0.2c-0.9-0.1-1.8-0.2-2.7-0.2c-0.9,0-1,0.1-1,1c0,1.2-0.1,2.4-0.1,3.7c0,5.3,0,10.6,0,15.9
	c0,0.3-0.1,0.7-0.1,1c-0.1,0.1-0.3,0.2-0.3,0.3c0,0.5,0.1,1.1,0.2,1.6c0,0.1,0,0.3,0,0.4c0.1,1.4-0.2,2.9,0.2,4.3
	c0.2,0.7,0,1.6,0,2.4c-0.3,0.3-0.3,0.5,0,0.8c0,0.8-0.1,1.6-0.1,2.4c0,1.2-0.3,2.4,0.3,3.5c0.6,0.4,1.4,0.7,2.1,0.5
	c1.8-0.4,3.5-0.4,5.3-0.3c0.4,0,0.8,0.1,1.1,0.1c1,0,2-0.1,2.9-0.1s1.2-0.2,1.3-1.1c0-0.8,0-1.7,0-2.5c0-0.8-0.4-1-1.2-0.9
	c-0.2,0-0.4,0-0.6,0c-1.8,0-3.6,0-5.5,0c-0.8,0-0.8,0-1-0.9c0-2,0-3.9,0-5.9C128.2,55.3,128.2,54.9,128.3,54.5L128.3,54.5z
	 M128.7,67.8c0.4,0,0.9-0.1,1.2,0.1c0.7,0.3,1.3,0.1,1.9,0.1c0.5,0,1,0,1.5,0s1,0.2,1.5-0.1c0.1-0.1,0.4-0.1,0.6,0
	c0.6,0.2,0.9-0.1,1.1-0.6c0.6-1.3,0.9-2.7,0.3-4.1c-0.1-0.2,0-0.4-0.1-0.5c0.2-0.1,0.4-0.2,0.6-0.2c0.3,0,0.5,0,1,0.1
	c0.2,0.3,0.3,0.8,0.1,1.3c-0.1,0.4,0,0.7,0.3,1c0.5,0.5,0.5,0.8-0.2,1.1c-0.8,0.4-0.9,0.6-0.7,1.4c0,0.4,0.2,0.5,0.5,0.4h1.4
	c0,0.3,0,0.7,0.1,1.1c-1.2-0.3-2.4,0.2-3.6-0.3c-0.1,0-0.2,0-0.3,0c-0.9,0.7-2.1,0.1-3.1,0.5c-0.3,0.1-0.8-0.1-1.1-0.1
	c-0.2,0-0.5-0.1-0.7-0.1C130,68.8,129.3,68.3,128.7,67.8L128.7,67.8z M136.9,68.1L136.9,68.1c0,0.1,0.1,0,0.1,0S137,68.1,136.9,68.1
	L136.9,68.1L136.9,68.1z M136.6,62.2c-0.7-0.5-1.5-0.4-2.3-0.4c-1.3,0-2.5,0.2-3.8-0.1c-0.4-0.1-0.8,0.1-1.3,0.1
	c-0.4-0.6-0.1-1.2-0.2-1.7c0-0.6,0-1.2,0-1.8c0.2-0.1,0.4-0.1,0.6-0.2c0,0.2,0.1,0.4,0.1,0.5c0,0.3,0.2,0.6,0.5,0.6
	c0.5,0,0.7,0.3,0.8,0.7c0.1,0.6,0.5,0.7,1,0.7c0.7,0,1.5-0.2,2.1,0.4c0.1,0.1,0.3-0.1,0.5-0.1c0.6-0.1,1.2-0.1,1.8-0.2
	c0.4,0,0.8-0.1,1.1-0.1c0.2,0,0.5,0.1,0.5,0.3c0.1,0.1-0.1,0.4-0.2,0.5c-0.2,0.2-0.5,0.3-0.7,0.5C137,62,136.8,62.1,136.6,62.2
	L136.6,62.2z M129,56.5V44.8c0.2-0.1,0.4-0.1,0.7-0.3c0.1,0.7,0.2,1.3,0.2,1.9c0.3,0,0.6-0.1,1-0.1c0,0,0,0.1,0.1,0.1
	c-0.1,0.1-0.2,0.2-0.3,0.3c-0.5,0.4-0.5,0.5,0.1,0.7c0.5,0.2,0.8,0.8,0.5,1.3c-0.1,0.1-0.4,0.3-0.6,0.2c-0.6-0.1-0.8,0.1-0.8,0.7
	c0,0.9-0.1,1.8-0.2,2.8c0,0.5,0.1,0.8,0.6,1.1c0.6,0.3,0.5,0.5,0,0.8c-0.7,0.4-0.7,0.4-0.5,1.2C130,56.2,129.9,56.3,129,56.5
	L129,56.5z M129,43.9v-0.5c0.1,0.1,0.3,0.2,0.4,0.3C129.3,43.8,129.2,43.8,129,43.9z M138.4,67.6c-0.4,0.2-0.5,0-0.5-0.4
	C138,67.3,138.2,67.5,138.4,67.6z M103.7,66.6c-0.1,0.6-0.1,0.6-0.7,0.4c-0.6-1.3-0.3-2.7-0.4-4c0-0.4-0.1-0.8-0.2-1.2
	c-0.2-1-0.1-1.9,0-2.9c0.1-1.5,0-3,0-4.5c0-2.4,0-4.8,0-7.3c0.2-0.2,0.5-0.4,0-0.5l-0.2-0.2c0-0.2,0-0.5,0.1-0.6
	c0.8-1,0.2-2.1,0.1-3.2c0-0.3-0.1-0.5-0.1-0.8c0-1.5,0.1-3.1,0.1-4.6c0-0.5-0.1-1.1-0.2-1.6c0-0.1-0.1-0.2,0-0.3
	c0.4-0.6,0.5-1.2,0.1-1.8c0-0.1,0-0.2,0-0.3c0-0.8,0.1-1.6,0.1-2.5c0.2-0.3,0.4-0.6,0.5-0.9c0.3-0.2,0.6-0.5,0.9-0.7
	c1.1,0,2.2,0,3.3,0c0.8,0,1.3,0.6,1.6,1.3c0.4,1,0.4,1.9,0,2.9c-0.1,0.2,0,0.4,0,0.6c0,0.9,0,1.7,0,2.6c0,0.1,0,0.2,0,0.3
	c0.4,0.9,0.1,1.8,0,2.7c-0.1,1.4,0,2.7,0,4.1c0,0.1,0.1,0.2,0.1,0.3c0.1-0.1,0.3-0.2,0.3-0.3c0.4-1.8,1-3.5,1.6-5.2
	c1-2.7,2-5.5,2.9-8.2c0.2-0.7,0.8-1,1.4-1c0.4-0.1,0.9-0.1,1.3-0.1c0.9,0,1.8,0,2.7,0.1c1.1,0.1,1.5,0.7,1.1,1.8
	c-0.2,0.6-0.5,1.2-0.8,1.8c0,0.2,0,0.4,0,0.5c-0.2,0.4-0.4,0.8-0.5,1.3c-0.1,0.2-0.1,0.5-0.2,0.7s-0.2,0.5-0.4,0.7
	c-0.2,0.4-0.3,0.8-0.5,1.2s-0.5,0.8-0.7,1.1l0-0.3c0.2-0.6,0.5-1.2,0.7-1.8c0.5-1.3,0.9-2.6,1.3-3.8c0.2-0.6,0.4-1.3,0.6-1.9
	c0.2-0.5-0.1-0.7-0.5-0.7c-1.3,0-2.7,0-4,0c-0.4,0-0.7,0.2-0.8,0.6c-0.3,1-0.7,1.9-1,2.8c-0.4,1.1-0.8,2.2-1.2,3.4
	c-0.5,1.4-0.9,2.9-1.4,4.4c-0.4,1.1-0.7,2.2-1.1,3.3c-0.2,0.7-0.4,1.4-0.6,2.1c0,0.1-0.3,0.2-0.4,0.3c-0.1-0.1-0.2-0.2-0.2-0.3
	c0-1-0.1-2.1-0.1-3.1c0-4.1,0-8.1,0-12.2c0-1-0.3-1.2-1.2-1.2c-0.9,0-1.7,0-2.6,0c-0.3,0-0.6,0.2-0.9,0.3c-0.4,0.2-0.4,0.5-0.4,0.8
	c0,3.5,0,7.1,0.1,10.6l0.2,1.1c0,0.6-0.1,1.2,0,1.8c0.2,1,0.1,2-0.1,2.9c-0.1,0.3-0.1,0.6-0.1,0.9c0,1.6,0,3.2,0,4.8
	c0,3.5,0.1,6.9,0.2,10.3c0,0.1,0,0.3,0,0.4C103.5,64.8,103.2,65.7,103.7,66.6L103.7,66.6z M102.5,47.1c0,2.4,0,4.8,0,7.3
	c0,1.5,0.1,3,0,4.5c-0.1,1-0.2,2,0,2.9c-0.1,0.3-0.2,0.7-0.4,1c-0.2,0.2-0.5,0.4-0.8,0.4c-0.1,0-0.4-0.5-0.3-0.7
	c0.4-1.3,0-2.7,0.2-4c0-0.3,0.2-0.6,0.3-1c0.1-0.2,0.3-0.5,0.3-0.5c-0.6-0.8,0.5-1.7-0.2-2.4c-0.5-0.6-0.5-0.7,0-1.4
	c0.2-0.2,0.2-0.5,0.3-0.8c0-0.7-0.1-1.3-0.1-2c0-0.6,0.1-1.2-0.4-1.7c-0.1-0.1-0.2-0.5-0.1-0.6c0.4-0.5,0.5-1.4,1.2-1.7l0.2,0.2v0.5
	H102.5z M102.5,30.6c0,0.8,0,1.6-0.1,2.5c0,0.1-0.1,0.3,0,0.3c0.4,0.6,0.2,1.2-0.1,1.8c0,0.1,0,0.2,0,0.3c0.1,0.5,0.2,1.1,0.2,1.6
	c0,1.5-0.1,3.1-0.1,4.6c0,0.3,0.1,0.5,0.1,0.8c-0.3,0.3-0.6,0.4-1,0.2s-0.5-0.6-0.4-1c0.1-0.6,0.1-1.1,0.1-1.7c0-0.5,0.1-1,0.4-1.4
	c0.1-0.2,0.2-0.5,0.1-0.7c-0.5-0.5-0.3-1.2-0.5-1.8s-0.2-1.3,0.3-1.8s0.4-0.7-0.1-1.2c-0.3-0.4-0.5-1.9-0.2-2.3
	c0.1-0.1,0.3-0.2,0.5-0.3C101.9,30.6,102.2,30.6,102.5,30.6L102.5,30.6z M117,38l0.2,0.2c0.1,0.3,0.1,0.6,0.2,0.9
	c0,0.5,0,1.1-0.1,1.7c-0.2,0.1-0.8-0.2-0.8,0.5c-0.4,0.6-0.3,1.2-0.2,1.8c0.1,0.1,0.1,0.2,0.2,0.2c0.4,0,0.8,0,1.1,0
	c0.5,0,0.7-0.1,0.6-0.6c0-0.3-0.1-0.6-0.2-0.9c0-0.1-0.1-0.3-0.1-0.4c0.1-1,0.2-1.9,0.4-2.9c0.1-0.7,0.3-0.8,1-0.8
	c0.1,0,0.2-0.1,0.3-0.1h0.4c0.9,0.1,1,0,1.1-0.9c0-0.3,0-0.5,0.1-0.8c0.3,0,0.5,0,0.7,0.1v10c-0.9,0.6-0.9,1.1,0,1.8v5.6
	c-0.1,0.5-0.1,1-0.2,1.6c0,0.4,0,0.8-0.4,1.1c-0.5,0-0.7,0.2-0.7,0.7c-0.1,0-0.2,0-0.4,0c-0.4,0.2-0.8,0.7-0.5,1s0.7,0.3,1,0.1
	c0.1-0.1,0.2-0.2,0.3-0.2c0.3-0.1,0.7-0.2,1-0.3c-0.1,0.7-0.1,1.4-0.2,2c-0.1,1.1-0.3,2.1,0.4,3.1c-0.5,0.3-1,0.5-1.4,0.7
	c-0.5,0.3-0.5,0.6-0.1,1c0.5,0.5,0.6,1.1,0.4,1.7c-0.1,0.3-0.1,0.6-0.1,1c0,0.7-0.5,1.2-1,1.6c-0.1,0.1-0.3,0.1-0.5,0
	c-1.1-0.3-2.3-0.4-3.4-0.3c-0.2,0-0.3-0.1-0.5-0.1s-0.4-0.1-0.5,0c-0.5,0.5-0.9,0.3-1.4-0.1c-0.3,0.6-0.8,0.6-1.3,0.6
	c-1.3,0-2.6,0-3.9,0c-0.2-0.6-0.4-1.2-0.5-1.8c0-0.1,0.1-0.2,0.1-0.4c0.7-0.4,0.4-0.9,0.2-1.4c0-0.1,0-0.1-0.1-0.2
	c0-2.6,0-5.2,0-7.8s0.1-5.2,0.2-7.8c0.1,0,0.1,0,0.2,0s0.1,0,0.2,0c0.1,0.2,0.3,0.4,0.4,0.6c0.5,1.6,1,3.1,1.4,4.7
	c0.4,1.2,0.7,2.4,1.1,3.6c0.4,1.2,0.9,2.5,1.4,3.7c0.5,1.3,0.9,2.6,1.4,3.9c0.2,0.6,0.6,1.3,1.3,1.4c1.2,0.1,2.4,0,3.6,0
	c0.4,0,0.6-0.2,0.5-0.7c0-0.2,0.1-0.5,0-0.6c-0.6-1.7-1.2-3.3-1.8-5c-0.6-1.6-1.2-3.3-1.8-4.9c-0.3-0.7-0.7-1.4-1-2.2h0.1l0,0
	c-0.1-0.3-0.1-0.6-0.2-0.9c-0.4-1.1-0.9-2.2-1.3-3.3s-0.5-2.2,0-3.3c0.5-1.2,1-2.5,1.4-3.8c0.2-0.5,0.3-1,0.4-1.5
	C116.1,40,116.5,39,117,38L117,38z M114.4,67.5c0-0.2,0-0.3,0-0.4c-0.6-1.5-1.2-3.1-1.8-4.6c-0.3-0.8-0.7-1.5-1-2.3
	c-0.7-1.8-1.3-3.7-1.9-5.5c0-0.1,0-0.2,0-0.4c-0.1-0.8-0.3-1.6-0.5-2.4c0-0.1-0.2-0.1-0.2-0.2c-0.1,0-0.1,0-0.2,0.1
	c0,0.3,0.1,0.6,0.1,0.9c0.1,0.8,0.3,1.6,0.3,2.4c0,1.1-0.1,2.1-0.1,3.2c0,0.6,0.1,1.2,0.1,1.8c0,1.1-0.1,2.3-0.1,3.4
	c0,0.2,0.1,0.4,0.2,0.7c0.1,0,0.2,0,0.3,0c0.1-0.4,0.2-0.7,0.2-1.1c0-0.5,0-1,0-1.4c0-0.5,0.4-0.8,0.8-0.7s0.8,0.5,0.7,1
	c-0.2,0.5,0,0.6,0.4,0.8c0.2,0.1,0.4,0.4,0.5,0.7c0.1,0.2,0.1,0.4,0.2,0.7c0.1,0.3,0.2,0.5,0.3,0.8c0.1,0.4-0.1,1,0.1,1.3
	C113.2,66.5,113.5,67.2,114.4,67.5L114.4,67.5z M120.2,62.4c0.7,0,1.1-0.1,1-0.4c-0.1-0.2-0.4-0.3-0.6-0.4c-0.7-0.2-0.9-0.5-0.5-1.2
	c0.3-0.6,0.3-0.7-0.3-0.8c-0.6-0.1-0.8-0.3-0.8-0.9c0-0.6-0.2-1-0.6-1.3c-0.1-0.1-0.4-0.1-0.6-0.2c0,0.2-0.1,0.4,0,0.6
	c0.5,1.2,1,2.5,1.6,3.7c0.1,0.2,0.2,0.4,0.3,0.5C119.9,62.3,120.1,62.4,120.2,62.4L120.2,62.4z M117.9,55.8L117.9,55.8
	c0-0.1,0-0.3,0-0.4c0-0.3-0.2-0.5-0.5-0.4c-0.2,0.1-0.3,0.3-0.3,0.5c0,0.3,0.1,0.6,0.2,0.9c0,0.1,0.2,0.3,0.3,0.3
	c0.1,0,0.3-0.2,0.3-0.3C117.9,56.1,117.9,55.9,117.9,55.8L117.9,55.8z M117.9,53.4c-0.2-0.5-0.5-0.8-1-0.7c-0.2,0-0.4,0.2-0.5,0.3
	c0,0.1,0.1,0.4,0.2,0.5C117,53.9,117.4,53.8,117.9,53.4z M108.6,67.1c1-0.3,1.1-0.8,0.4-2.1C108.8,65.8,108.7,66.4,108.6,67.1z
	 M121.9,53.4V36c0-0.7,0-1.4,0-2.1c0-0.5,0.2-0.8,0.7-0.7c0,3.5,0,7.1,0,10.6c0,2.9,0,5.7,0,8.6c0,0.4-0.1,0.8-0.2,1.2
	C122.2,53.5,122,53.5,121.9,53.4L121.9,53.4z M117.4,39.1c-0.1-0.3-0.1-0.6-0.2-0.9c0.2-0.4,0.5-0.7,0.7-1.1
	c0.2-0.4,0.4-0.8,0.5-1.2c0.2,0.1,0.5,0.1,0.7,0.3c0.3,0.3,0.2,0.8-0.2,0.9c-0.5,0.1-0.6,0.5-0.7,0.8
	C118,38.3,117.7,38.7,117.4,39.1L117.4,39.1z M122.8,30.1c0.2,0.8,0.3,1.7,0,2.5c-0.3-0.3-0.6-0.6-0.8-1
	C121.5,30.9,121.8,30.2,122.8,30.1L122.8,30.1z M116.3,43c-0.1-0.6-0.2-1.2,0.2-1.8c0.7,0.3,0.1,0.9,0.3,1.4
	C116.8,42.6,116.5,42.9,116.3,43L116.3,43z M121.5,33.2c-0.2,0.1-0.4,0.2-0.5,0.2s-0.3-0.2-0.3-0.3s0.1-0.2,0.2-0.3
	C121,32.8,121.2,32.9,121.5,33.2L121.5,33.2z M119.5,33.1c0-0.2,0-0.4,0-0.5c0.1,0,0.1,0,0.2,0c0.3,0.1,0.5,0.2,0.4,0.5
	C120.1,33.2,119.7,33.1,119.5,33.1L119.5,33.1z M118.8,35.1c0.1-0.2,0.1-0.5,0.2-0.7c0.4,0.1,0.4,0.4,0.4,0.7H118.8L118.8,35.1z
	 M103.9,29c-0.3,0.2-0.6,0.5-0.9,0.7C103,29.1,103.4,29,103.9,29z M120.1,37.6h-0.4c-0.1-0.2-0.2-0.5,0.2-0.5
	C120,37.1,120,37.5,120.1,37.6L120.1,37.6z M120.8,34c-0.1,0.1-0.1,0.2-0.1,0.3c-0.1,0-0.2-0.1-0.2-0.1c0-0.1,0.1-0.2,0.1-0.2
	C120.6,33.9,120.7,33.9,120.8,34z M119.6,33.9C119.6,33.9,119.5,33.9,119.6,33.9C119.5,33.9,119.5,33.9,119.6,33.9
	C119.5,33.8,119.5,33.8,119.6,33.9C119.6,33.8,119.6,33.9,119.6,33.9L119.6,33.9z M120.2,36.1C120.2,36.1,120.2,36,120.2,36.1
	C120.2,36,120.2,36,120.2,36.1C120.3,36,120.3,36,120.2,36.1C120.3,36.1,120.3,36.1,120.2,36.1z M119.6,35.2
	C119.5,35.3,119.5,35.3,119.6,35.2c-0.1,0-0.2,0-0.2,0S119.4,35.1,119.6,35.2C119.5,35.2,119.5,35.2,119.6,35.2z M121.9,53.4
	c0.2,0.1,0.4,0.1,0.5,0.2c0,1,0,2,0,3.1c-0.4,0.1-0.4,0.4-0.4,0.7c-0.3,0.1-0.7,0.2-1,0.3c-0.1,0-0.2,0.1-0.3,0.2
	c-0.4,0.2-0.8,0.2-1-0.1c-0.2-0.2,0.1-0.8,0.5-1c0.1,0,0.2,0,0.4,0c0.1,0.2,0.2,0.6,0.6,0.4c0.3-0.2,0.6-0.4,0.3-0.8
	c-0.1-0.1-0.1-0.2-0.2-0.3c0.4-0.3,0.3-0.7,0.4-1.1C121.7,54.4,121.8,53.9,121.9,53.4L121.9,53.4z M177.6,40.5
	c1.3,0,2.6,1.3,2.4,2.4c-0.1,0.4-0.2,0.8-0.4,1c-1.1,1.2-2.1,2.5-3.2,3.7c-1.1,1.2-2.2,2.4-3.3,3.5c-1,1-1.9,2-2.9,3.1
	c-0.8,0.8-1.8,1.1-2.8,0.6c-1-0.4-1.8-1.7-1.7-2.8c0.1-0.5,0.2-1,0.6-1.3c1.5-1.5,3.1-2.9,4.7-4.4c1.2-1.1,2.3-2.2,3.4-3.2
	c0.7-0.6,1.4-1.3,2.1-1.9C176.8,40.8,177.2,40.7,177.6,40.5L177.6,40.5z M177.6,42.1c-0.1,0.1-0.4,0.2-0.5,0.3
	c-0.4,0.4-0.7,0.8-1.1,1.1c-1.2,1.1-2.5,2.3-3.8,3.4c-0.8,0.7-1.5,1.5-2.4,2.2c-1.7,1.3-1.2,1.2,0,2.4c0,0,0,0,0.1,0.1
	c0.4,0.3,0.7,0.3,1-0.1c1.4-1.6,2.9-3.2,4.4-4.8c0.9-1,1.9-2,2.9-3.1c0.1-0.1,0.3-0.3,0.4-0.5C178.7,42.6,178.4,42.1,177.6,42.1
	L177.6,42.1z M169.8,52.6c-0.5-0.5-1-1-1.5-1.5c-0.1-0.1-0.4-0.1-0.5,0c-0.4,0.3-0.8,0.5-0.8,1.1c0,0.7,0.4,1,0.9,1.3s0.8,0,1.1-0.2
	C169.3,53.1,169.5,52.9,169.8,52.6L169.8,52.6z M159.7,62.2c-0.1,0-0.1,0-0.2,0c-0.4,0-1,0.1-1.1-0.4c-0.2-0.5,0.2-0.8,0.5-1.1
	c0.7-0.7,1.1-1.6,1.2-2.6c0.1-1.6,1-2.7,2.3-3.5c1.4-0.8,3.6,0.5,3.8,2.2c0.1,0.8-0.2,1.5-0.6,2.2c-0.8,1.5-2.3,2.1-3.6,2.9
	C161.3,62.1,160.5,62.1,159.7,62.2L159.7,62.2L159.7,62.2z M160.9,60.4c0.2,0,0.5,0,0.7-0.1c1-0.6,2-1.2,2.8-2.2
	c0.3-0.3,0.5-0.9,0.5-1.3c-0.2-1.1-1.2-1.4-2.2-0.8c-0.6,0.4-0.9,1-1.1,1.7C161.3,58.6,161.2,59.4,160.9,60.4L160.9,60.4z M180,40.1
	c0.2-0.1,0.4-0.3,0.6-0.3c1.7,0,3.4,0,5.1,0c0.5,0,0.7,0.2,0.7,0.7c0,3,0,6,0,9c0,0.5-0.3,0.7-0.7,0.8c-0.2,0.1-0.5,0-0.7,0
	c-2.7,0-5.4,0-8.1,0c-0.4,0-0.8,0.1-0.8-0.5c0.3-0.3,0.7-0.4,1.1-0.4c2.6,0,5.1,0,7.7,0c0.8,0,0.8-0.1,0.8-0.8c0-2.4,0-4.9,0-7.3
	c0-0.8,0-0.8-0.8-0.8c-1.2,0-2.4,0-3.6,0C180.9,40.5,180.4,40.4,180,40.1L180,40.1z M164.1,41.2c0,2.6,0,5.1,0,7.7
	c0,0.8,0.5,0.7,1.1,0.8c-0.4,0.9-1.1,0.4-1.7,0.5c0-0.3-0.1-0.5-0.1-0.7c0-2.9,0-5.8,0-8.7c0-0.9,0-0.9,0.9-1c3.5,0,7,0,10.5,0
	c0.2,0,0.4,0,0.5,0c0.3,0.1,0.2,0.3,0.1,0.5c-0.3,0.1-0.7,0.2-1,0.2c-3.1,0-6.3,0-9.5,0C164.3,40.5,163.9,40.5,164.1,41.2
	L164.1,41.2z M159.9,51.1c0.2,0,0.3,0,0.5,0c0,1,0,1.9,0.1,2.9c-0.1,0.2-0.2,0.4-0.3,0.5c-0.1,0-0.2,0-0.2,0L159.9,51.1L159.9,51.1z
	 M147.9,38.9c0.1,0,0.2,0,0.4,0c0.2,0.3,0.3,0.5,0.5,0.8c0,0.3,0,0.5,0,0.8c-0.1,0.3-0.1,0.5-0.2,0.8c-0.1,0.3-0.1,0.5-0.2,0.8
	c-0.2,0-0.3,0-0.5,0c0-0.7,0-1.3,0-2c0.1,0,0.1-0.1,0.2-0.1c-0.1-0.1-0.1-0.1-0.2-0.2C147.9,39.5,147.9,39.2,147.9,38.9L147.9,38.9z
	 M147.9,39.8l0.2,0.2c-0.1,0-0.1,0.1-0.2,0.1V39.8z M157.2,49.7c-0.6,0.5-1.2,0.5-1.8,0C156,49.7,156.6,49.7,157.2,49.7z
	 M152.2,49.9c-0.6,0-1.1,0-1.7,0C151,49.5,151.6,49.5,152.2,49.9z M153.8,49.7c-0.4,0.5-0.9,0.3-1.4,0.3
	C152.8,49.4,153.3,49.7,153.8,49.7z M123.3,51.2c0,0.6-0.1,1.2-0.2,1.9c-0.1-0.5-0.1-1-0.2-1.6C123,51.4,123.2,51.3,123.3,51.2
	L123.3,51.2z M136.9,68.1L136.9,68.1c0.1,0,0.1,0,0.1,0H136.9L136.9,68.1L136.9,68.1z M102.5,47.1v-0.5
	C103,46.8,102.7,46.9,102.5,47.1z M114.4,67.5c-0.9-0.3-1.2-1-1.7-1.5c-0.2-0.3-0.1-0.9-0.1-1.3c0-0.3-0.2-0.5-0.3-0.8
	c-0.1-0.2-0.1-0.5-0.2-0.7s-0.3-0.5-0.5-0.7c-0.4-0.2-0.6-0.4-0.4-0.8c0.2-0.4-0.2-0.9-0.7-1c-0.4-0.1-0.8,0.2-0.8,0.7s0,1,0,1.4
	s-0.1,0.7-0.2,1.1c-0.1,0-0.2,0-0.3,0c-0.1-0.2-0.2-0.4-0.2-0.7c0-1.1,0.1-2.3,0.1-3.4c0-0.6-0.1-1.2-0.1-1.8c0-1.1,0.1-2.1,0.1-3.2
	c0-0.8-0.2-1.6-0.3-2.4c0-0.3-0.1-0.6-0.1-0.9c0.1,0,0.1,0,0.2-0.1c0.1,0.1,0.2,0.1,0.2,0.2c0.2,0.8,0.3,1.6,0.5,2.4
	c0,0.1,0,0.2,0,0.4c0.6,1.8,1.3,3.7,1.9,5.5c0.3,0.8,0.7,1.5,1,2.3c0.6,1.5,1.2,3.1,1.8,4.6C114.4,67.2,114.4,67.3,114.4,67.5
	L114.4,67.5z M120.2,62.4c-0.1,0-0.3-0.2-0.5-0.4c-0.1-0.1-0.3-0.3-0.3-0.5c-0.5-1.2-1.1-2.5-1.6-3.7c-0.1-0.2,0-0.4,0-0.6
	c0.2,0.1,0.4,0.1,0.6,0.2c0.4,0.3,0.7,0.7,0.6,1.3c0,0.5,0.2,0.8,0.8,0.9c0.6,0.1,0.6,0.2,0.3,0.8c-0.3,0.6-0.1,1,0.5,1.2
	c0.2,0.1,0.5,0.2,0.6,0.4C121.3,62.3,120.9,62.5,120.2,62.4L120.2,62.4z M117.9,55.8c0,0.1,0,0.3,0,0.4c-0.1,0.1-0.2,0.3-0.3,0.3
	c-0.1,0-0.3-0.1-0.3-0.3c-0.1-0.3-0.2-0.6-0.2-0.9c0-0.2,0.2-0.5,0.3-0.5c0.3-0.1,0.5,0.1,0.5,0.4C117.9,55.5,117.9,55.6,117.9,55.8
	L117.9,55.8L117.9,55.8z M117.9,53.4c-0.5,0.4-1,0.5-1.4,0.1c-0.1-0.1-0.2-0.4-0.2-0.5s0.4-0.3,0.6-0.3
	C117.2,52.7,117.5,52.9,117.9,53.4z M108.6,67.1c0.1-0.7,0.2-1.3,0.4-2.1C109.7,66.3,109.6,66.8,108.6,67.1z M121.3,56.1
	c0.1,0.1,0.1,0.2,0.2,0.3c0.2,0.4-0.1,0.6-0.3,0.8c-0.4,0.2-0.4-0.2-0.6-0.4C120.6,56.3,120.8,56.1,121.3,56.1L121.3,56.1z
	 M121.9,46v1.8C121,47.2,121,46.7,121.9,46z M108,66.5c0-0.5,0-0.9,0-1.4c0.1,0,0.1,0,0.2,0C108.4,65.6,108.7,66.1,108,66.5
	L108,66.5z"/>
</svg>
